<?xml version="1.0" encoding="UTF-8" standalone="no"?>
<!-- Created with Inkscape (http://www.inkscape.org/) -->

<svg
   xmlns:dc="http://purl.org/dc/elements/1.1/"
   xmlns:cc="http://creativecommons.org/ns#"
   xmlns:rdf="http://www.w3.org/1999/02/22-rdf-syntax-ns#"
   xmlns:svg="http://www.w3.org/2000/svg"
   xmlns="http://www.w3.org/2000/svg"
   xmlns:sodipodi="http://sodipodi.sourceforge.net/DTD/sodipodi-0.dtd"
   xmlns:inkscape="http://www.inkscape.org/namespaces/inkscape"
   width="210mm"
   height="297mm"
   viewBox="0 0 210 297"
   version="1.1"
   id="svg8"
   inkscape:version="0.92.2 (5c3e80d, 2017-08-06)"
   sodipodi:docname="02 - Tools.svg"
   inkscape:export-filename="C:\Users\p\Documents\GitHub\portableRetroPie\guide\src\02_Tools.png"
   inkscape:export-xdpi="96"
   inkscape:export-ydpi="96">
  <defs
     id="defs2" />
  <sodipodi:namedview
     id="base"
     pagecolor="#ffffff"
     bordercolor="#666666"
     borderopacity="1.0"
     inkscape:pageopacity="0.0"
     inkscape:pageshadow="2"
     inkscape:zoom="0.35"
     inkscape:cx="-177.76737"
     inkscape:cy="891.9771"
     inkscape:document-units="mm"
     inkscape:current-layer="layer1"
     showgrid="false"
     inkscape:window-width="1144"
     inkscape:window-height="756"
     inkscape:window-x="486"
     inkscape:window-y="197"
     inkscape:window-maximized="0" />
  <metadata
     id="metadata5">
    <rdf:RDF>
      <cc:Work
         rdf:about="">
        <dc:format>image/svg+xml</dc:format>
        <dc:type
           rdf:resource="http://purl.org/dc/dcmitype/StillImage" />
        <dc:title />
      </cc:Work>
    </rdf:RDF>
  </metadata>
  <g
     inkscape:label="Calque 1"
     inkscape:groupmode="layer"
     id="layer1">
    <g
       transform="translate(-4.963411,-157.63494)"
       style="display:inline;opacity:1"
       id="g8951">
      <g
         transform="matrix(0.95392875,0,0,0.95392875,-11.676799,-24.323459)"
         id="g8744">
        <text
           xml:space="preserve"
           style="font-style:normal;font-weight:normal;font-size:7.26653147px;line-height:1.25;font-family:sans-serif;letter-spacing:0px;word-spacing:0px;fill:#000000;fill-opacity:1;stroke:none;stroke-width:0.45415822"
           x="146.90262"
           y="255.29808"
           id="text24064"><tspan
             sodipodi:role="line"
             id="tspan24062"
             x="146.90262"
             y="255.29808"
             style="stroke-width:0.45415822">Wire cutter</tspan></text>
        <g
           id="g1097"
           transform="translate(16.651147,120.61764)">
          <path
             sodipodi:nodetypes="cccccccc"
             inkscape:connector-curvature="0"
             id="path928"
             d="m 135.76714,110.82463 c 0.43355,-0.26882 0.77162,-0.53764 1.94486,-0.80646 2.29326,-0.31294 4.97812,-0.15321 7.25814,0.30243 2.25441,0.9989 4.3815,1.91293 6.35086,2.72179 l -1.00807,2.26817 -6.60289,-2.7218 c -2.37059,-1.42084 -7.18901,0.21375 -7.84463,-1.03761 -0.1687,-0.21841 -0.18898,-0.5081 -0.0983,-0.72652 z"
             style="fill:#f4e610;fill-opacity:1;stroke:none;stroke-width:0.16219085px;stroke-linecap:butt;stroke-linejoin:miter;stroke-opacity:1" />
          <path
             sodipodi:nodetypes="ccccc"
             inkscape:connector-curvature="0"
             id="path952"
             d="m 151.09107,113.41771 c 1.37996,0.99766 2.93898,1.23403 4.56202,1.60384 l -1.21179,0.28512 0.28513,1.14051 c -1.3984,-0.36694 -3.30169,-0.64845 -4.20562,-1.60383"
             style="fill:#a2a4a1;fill-opacity:1;stroke:none;stroke-width:0.16219085px;stroke-linecap:butt;stroke-linejoin:miter;stroke-opacity:1" />
          <path
             sodipodi:nodetypes="cccccccccccccccc"
             inkscape:connector-curvature="0"
             id="path954"
             d="m 154.54653,115.37647 3.47786,-1.3105 1.03327,-0.40323 c 0.52373,-0.16457 1.04868,-0.32061 1.63812,-0.0252 l 1.99094,0.98287 -4.28431,1.66332 c -0.0467,0.44487 -0.14213,0.0603 0.15121,0.37803 l 4.20871,-0.35283 -0.55444,1.20969 -2.84781,0.80646 -3.30144,-0.37803 -3.80547,1.86494 -0.73086,-1.20969 2.06655,-1.36089 1.15928,-0.63006 z"
             style="fill:#a2a4a1;fill-opacity:1;stroke:none;stroke-width:0.16219085px;stroke-linecap:butt;stroke-linejoin:miter;stroke-opacity:1" />
          <path
             sodipodi:nodetypes="cccccccc"
             inkscape:connector-curvature="0"
             id="path928-6"
             d="m 137.49786,124.71654 c 0.46874,0.20127 0.84307,0.41676 2.04326,0.5079 2.31428,-0.032 4.94544,-0.58967 7.13221,-1.37969 2.08056,-1.32342 4.04786,-2.54396 5.87484,-3.63702 l -1.33454,-2.09279 -6.12405,3.67454 c -2.13262,1.75795 -7.1407,0.85898 -7.60271,2.19401 -0.13431,0.24109 -0.11123,0.53057 0.011,0.73305 z"
             style="display:inline;opacity:1;fill:#f6e403;fill-opacity:1;stroke:none;stroke-width:0.16219085px;stroke-linecap:butt;stroke-linejoin:miter;stroke-opacity:1" />
        </g>
      </g>
    </g>
    <g
       transform="translate(-0.95436735,-171.53296)"
       style="display:inline;opacity:1"
       id="g8941">
      <text
         id="text24074"
         y="279.79431"
         x="75.655502"
         style="font-style:normal;font-weight:normal;font-size:5.84401703px;line-height:1.25;font-family:sans-serif;letter-spacing:0px;word-spacing:0px;fill:#000000;fill-opacity:1;stroke:none;stroke-width:0.36525106"
         xml:space="preserve"><tspan
           style="stroke-width:0.36525106"
           y="279.79431"
           x="75.655502"
           id="tspan24072"
           sodipodi:role="line">AWG 30 Wrapping Cable</tspan></text>
      <g
         transform="matrix(0.58113094,0,0,0.70939054,14.476055,148.46428)"
         id="g1110">
        <rect
           style="display:inline;opacity:1;fill:#ff6600;fill-opacity:1;stroke:none;stroke-width:0.29250708;stroke-miterlimit:4;stroke-dasharray:0.29250712, 0.29250712;stroke-dashoffset:0;stroke-opacity:0"
           id="rect987-4"
           width="43.724915"
           height="1.8812487"
           x="-171.87985"
           y="148.172"
           rx="0.16799784"
           transform="rotate(-90.077647)" />
        <rect
           style="display:inline;opacity:1;fill:#ff0000;fill-opacity:1;stroke:none;stroke-width:0.29250708;stroke-miterlimit:4;stroke-dasharray:0.29250712, 0.29250712;stroke-dashoffset:0;stroke-opacity:0"
           id="rect987-4-8"
           width="43.724918"
           height="1.8812487"
           x="-171.95935"
           y="149.86513"
           rx="0.16799787"
           transform="rotate(-90.077647)" />
        <rect
           style="display:inline;opacity:1;fill:#800080;fill-opacity:1;stroke:none;stroke-width:0.29250708;stroke-miterlimit:4;stroke-dasharray:0.29250712, 0.29250712;stroke-dashoffset:0;stroke-opacity:0"
           id="rect987-4-8-7"
           width="43.724918"
           height="1.8812487"
           x="-171.87987"
           y="151.37015"
           rx="0.16799787"
           transform="rotate(-90.077647)" />
        <rect
           style="display:inline;opacity:1;fill:#000000;fill-opacity:1;stroke:none;stroke-width:0.29250708;stroke-miterlimit:4;stroke-dasharray:0.29250712, 0.29250712;stroke-dashoffset:0;stroke-opacity:0"
           id="rect987-4-8-3"
           width="43.724918"
           height="1.8812487"
           x="-171.95935"
           y="153.06323"
           rx="0.16799787"
           transform="rotate(-90.077647)" />
        <rect
           style="display:inline;opacity:1;fill:#ffff00;fill-opacity:1;stroke:none;stroke-width:0.29250708;stroke-miterlimit:4;stroke-dasharray:0.29250712, 0.29250712;stroke-dashoffset:0;stroke-opacity:0"
           id="rect987-4-8-1"
           width="43.724918"
           height="1.8812487"
           x="-171.95935"
           y="154.75635"
           rx="0.16799787"
           transform="rotate(-90.077647)" />
        <rect
           style="display:inline;opacity:1;fill:#008000;fill-opacity:1;stroke:none;stroke-width:0.29250708;stroke-miterlimit:4;stroke-dasharray:0.29250712, 0.29250712;stroke-dashoffset:0;stroke-opacity:0"
           id="rect987-4-8-9"
           width="43.724918"
           height="1.8812487"
           x="-171.95934"
           y="156.07323"
           rx="0.16799787"
           transform="rotate(-90.077647)" />
        <rect
           style="display:inline;opacity:1;fill:#0000ff;fill-opacity:1;stroke:none;stroke-width:0.29250708;stroke-miterlimit:4;stroke-dasharray:0.29250712, 0.29250712;stroke-dashoffset:0;stroke-opacity:0"
           id="rect987-4-8-0"
           width="43.724918"
           height="1.8812487"
           x="-171.95935"
           y="157.9545"
           rx="0.16799787"
           transform="rotate(-90.077647)" />
        <rect
           style="display:inline;opacity:1;fill:#ffffff;fill-opacity:1;stroke:none;stroke-width:0.29250708;stroke-miterlimit:4;stroke-dasharray:0.29250712, 0.29250712;stroke-dashoffset:0;stroke-opacity:0"
           id="rect987-4-8-75"
           width="43.724918"
           height="1.8812487"
           x="-172.03886"
           y="159.64761"
           rx="0.16799787"
           transform="rotate(-90.077647)" />
        <rect
           style="display:inline;opacity:1;fill:#552200;fill-opacity:1;stroke:none;stroke-width:0.29250708;stroke-miterlimit:4;stroke-dasharray:0.29250712, 0.29250712;stroke-dashoffset:0;stroke-opacity:0"
           id="rect987-4-8-19"
           width="43.724918"
           height="1.8812487"
           x="-171.87985"
           y="160.96451"
           rx="0.16799787"
           transform="rotate(-90.077647)" />
        <rect
           style="display:inline;opacity:1;fill:#1a1a1a;fill-opacity:1;stroke:none;stroke-width:0.42699116;stroke-miterlimit:4;stroke-dasharray:0.42699119, 0.42699119;stroke-dashoffset:0;stroke-opacity:0"
           id="rect987-8"
           width="46.58691"
           height="3.7624974"
           x="-173.56128"
           y="161.9538"
           rx="0.17899409"
           transform="rotate(-90.077647)" />
        <rect
           style="opacity:1;fill:#1a1a1a;fill-opacity:1;stroke:none;stroke-width:0.42699116;stroke-miterlimit:4;stroke-dasharray:0.42699119, 0.42699119;stroke-dashoffset:0;stroke-opacity:0"
           id="rect987"
           width="46.58691"
           height="3.7624974"
           x="-173.23135"
           y="145.13834"
           rx="0.17899409"
           transform="rotate(-90.077647)" />
      </g>
    </g>
    <g
       transform="translate(-1.4889074,-191.3109)"
       style="display:inline;opacity:1"
       id="g8925">
      <rect
         rx="0.19415861"
         y="236.71204"
         x="41.96249"
         height="1.1210569"
         width="3.2769356"
         id="rect2015"
         style="opacity:1;fill:#333333;fill-opacity:1;stroke:#000000;stroke-width:0.30109042;stroke-miterlimit:4;stroke-dasharray:none;stroke-dashoffset:0;stroke-opacity:0" />
      <rect
         rx="0.20138174"
         y="236.77545"
         x="49.104576"
         height="1.0730816"
         width="3.2646799"
         id="rect2017"
         style="opacity:1;fill:#333333;fill-opacity:1;stroke:#000000;stroke-width:0.3059482;stroke-miterlimit:4;stroke-dasharray:none;stroke-dashoffset:0;stroke-opacity:0" />
      <rect
         rx="0.19497326"
         y="233.35202"
         x="45.35067"
         height="2.5131326"
         width="3.680371"
         id="rect2019-4"
         style="display:inline;opacity:1;fill:#333333;fill-opacity:1;stroke:#000000;stroke-width:0.28571299;stroke-miterlimit:4;stroke-dasharray:none;stroke-dashoffset:0;stroke-opacity:0" />
      <rect
         rx="0.31183401"
         y="263.36227"
         x="33.046581"
         height="8.0274734"
         width="28.392586"
         id="rect2091"
         style="opacity:1;fill:#edf2f8;fill-opacity:1;stroke:#000000;stroke-width:0.37972021;stroke-miterlimit:4;stroke-dasharray:none;stroke-dashoffset:0;stroke-opacity:1" />
      <rect
         rx="0.19565985"
         y="240.96672"
         x="33.076805"
         height="22.251722"
         width="5.5617223"
         id="rect2057"
         style="opacity:1;fill:#edf2f8;fill-opacity:1;stroke:#000000;stroke-width:0.2584174;stroke-miterlimit:4;stroke-dasharray:none;stroke-dashoffset:0;stroke-opacity:1" />
      <path
         inkscape:connector-curvature="0"
         id="path24003"
         d="m 32.675359,240.17101 c 0,-0.0408 -0.01114,-0.0743 -0.02477,-0.0743 -0.01362,0 -0.02477,-0.0279 -0.02477,-0.0619 0,-0.0558 0.0099,-0.0619 0.0991,-0.0619 0.07157,0 0.09911,-0.0103 0.09911,-0.0371 0,-0.0205 -0.01672,-0.0371 -0.03717,-0.0371 -0.02044,0 -0.03716,-0.0167 -0.03716,-0.0371 0,-0.0205 0.0158,-0.0371 0.03509,-0.0371 0.01931,0 0.03882,-0.0103 0.04336,-0.0229 0.0045,-0.0126 0.03892,-0.0305 0.07639,-0.0399 0.05309,-0.0132 0.06813,-0.008 0.06813,0.0229 0,0.0219 0.01114,0.0398 0.02477,0.0398 0.01363,0 0.02477,0.0167 0.02477,0.0371 0,0.0205 0.01672,0.0371 0.03717,0.0371 0.02853,0 0.03716,0.0317 0.03716,0.13626 0,0.10462 -0.0086,0.13627 -0.03716,0.13627 -0.02683,0 -0.03717,-0.0275 -0.03717,-0.0991 0,-0.0892 -0.0062,-0.0991 -0.06194,-0.0991 -0.04956,0 -0.06194,0.0124 -0.06194,0.0619 0,0.0523 -0.01156,0.0619 -0.07433,0.0619 -0.06607,0 -0.07433,0.009 -0.07433,0.0743 0,0.0495 -0.01238,0.0743 -0.03716,0.0743 -0.02477,0 -0.03717,-0.0248 -0.03717,-0.0743 z m 0.297311,-0.3097 c 0,-0.0205 -0.01672,-0.0371 -0.03717,-0.0371 -0.02044,0 -0.03716,0.0167 -0.03716,0.0371 0,0.0205 0.01672,0.0371 0.03716,0.0371 0.02044,0 0.03717,-0.0167 0.03717,-0.0371 z"
         style="opacity:1;fill:none;fill-opacity:1;stroke:none;stroke-width:0.04541608;stroke-miterlimit:4;stroke-dasharray:none;stroke-opacity:1" />
      <text
         id="text24068"
         y="280.34433"
         x="29.041929"
         style="font-style:normal;font-weight:normal;font-size:7.36863422px;line-height:1.25;font-family:sans-serif;letter-spacing:0px;word-spacing:0px;fill:#000000;fill-opacity:1;stroke:none;stroke-width:0.46053964"
         xml:space="preserve"><tspan
           style="stroke-width:0.46053964"
           y="280.34433"
           x="29.041929"
           id="tspan24066"
           sodipodi:role="line">3D printer</tspan></text>
      <rect
         rx="0.19415861"
         y="230.64507"
         x="28.775665"
         height="41.586628"
         width="0.9756394"
         id="rect1123"
         style="opacity:1;fill:#edf2f8;fill-opacity:1;stroke:#000000;stroke-width:0.30109042;stroke-miterlimit:4;stroke-dasharray:none;stroke-dashoffset:0;stroke-opacity:1" />
      <rect
         rx="0.19415861"
         y="230.58411"
         x="65.057251"
         height="41.586628"
         width="0.9756394"
         id="rect1123-8"
         style="display:inline;opacity:1;fill:#edf2f8;fill-opacity:1;stroke:#000000;stroke-width:0.30109042;stroke-miterlimit:4;stroke-dasharray:none;stroke-dashoffset:0;stroke-opacity:1" />
      <rect
         rx="0.19415861"
         y="230.76703"
         x="29.87326"
         height="41.159786"
         width="3.1708276"
         id="rect1945"
         style="opacity:1;fill:#edf2f8;fill-opacity:1;stroke:#000000;stroke-width:0.30109042;stroke-miterlimit:4;stroke-dasharray:none;stroke-dashoffset:0;stroke-opacity:1" />
      <rect
         rx="0.27347383"
         y="241.30548"
         x="55.87981"
         height="21.841591"
         width="7.773622"
         id="rect2057-1"
         style="display:inline;opacity:1;fill:#edf2f8;fill-opacity:1;stroke:#000000;stroke-width:0.30268377;stroke-miterlimit:4;stroke-dasharray:none;stroke-dashoffset:0;stroke-opacity:1" />
      <rect
         rx="0.19415861"
         y="230.85849"
         x="61.703487"
         height="41.159786"
         width="3.1708276"
         id="rect1945-6"
         style="display:inline;opacity:1;fill:#edf2f8;fill-opacity:1;stroke:#000000;stroke-width:0.30109042;stroke-miterlimit:4;stroke-dasharray:none;stroke-dashoffset:0;stroke-opacity:1" />
      <rect
         rx="0.19415861"
         y="229.66943"
         x="33.105064"
         height="3.8415797"
         width="28.537453"
         id="rect1962"
         style="opacity:1;fill:#edf2f8;fill-opacity:1;stroke:#000000;stroke-width:0.30109042;stroke-miterlimit:4;stroke-dasharray:none;stroke-dashoffset:0;stroke-opacity:1" />
      <rect
         rx="0.19415861"
         y="251.65179"
         x="33.623375"
         height="1.6463915"
         width="0.91466194"
         id="rect1966"
         style="opacity:1;fill:#1a1a1a;fill-opacity:1;stroke:#000000;stroke-width:0.30109042;stroke-miterlimit:4;stroke-dasharray:none;stroke-dashoffset:0;stroke-opacity:1" />
      <rect
         rx="0.19415861"
         y="251.6823"
         x="59.874161"
         height="1.6159028"
         width="1.1585717"
         id="rect1968"
         style="opacity:1;fill:#1a1a1a;fill-opacity:1;stroke:#000000;stroke-width:0.30109042;stroke-miterlimit:4;stroke-dasharray:none;stroke-dashoffset:0;stroke-opacity:1" />
      <rect
         rx="0.32540122"
         y="253.42699"
         x="33.247925"
         height="0.34593019"
         width="1.5329328"
         id="rect1966-1"
         style="display:inline;opacity:1;fill:#1a1a1a;fill-opacity:1;stroke:#000000;stroke-width:0.17867175;stroke-miterlimit:4;stroke-dasharray:none;stroke-dashoffset:0;stroke-opacity:1" />
      <rect
         rx="0.32540122"
         y="253.33864"
         x="59.686985"
         height="0.34593019"
         width="1.5329328"
         id="rect1966-1-3"
         style="display:inline;opacity:1;fill:#1a1a1a;fill-opacity:1;stroke:#000000;stroke-width:0.17867175;stroke-miterlimit:4;stroke-dasharray:none;stroke-dashoffset:0;stroke-opacity:1" />
      <path
         inkscape:connector-curvature="0"
         id="path2021"
         d="m 42.066593,237.8836 -0.04312,1.03482 2.069643,0.90547 1.07794,0.0431 0.04312,-1.9834 z"
         style="fill:#7c8c9b;fill-opacity:1;stroke:#000000;stroke-width:0.19621554px;stroke-linecap:butt;stroke-linejoin:miter;stroke-opacity:1" />
      <path
         inkscape:connector-curvature="0"
         id="path2021-7"
         d="m 52.242066,237.92479 0.04312,1.03482 -2.069644,0.90547 -1.07794,0.0431 -0.04312,-1.9834 z"
         style="display:inline;opacity:1;fill:#7c8c9b;fill-opacity:1;stroke:#000000;stroke-width:0.19621554px;stroke-linecap:butt;stroke-linejoin:miter;stroke-opacity:1" />
      <path
         inkscape:connector-curvature="0"
         id="path2038"
         d="m 45.343528,238.74594 c 0,0 0.129353,1.25042 0.301824,1.25042 0.172471,0 3.061348,-0.0431 3.061348,-0.0431 l 0.344941,-1.20729 z"
         style="fill:#7c8c9b;fill-opacity:1;stroke:#000000;stroke-width:0.19621554px;stroke-linecap:butt;stroke-linejoin:miter;stroke-opacity:1" />
      <path
         inkscape:connector-curvature="0"
         id="path2040"
         d="m 45.882499,240.08444 0.599455,0.82425 0.69312,-0.82425 z"
         style="fill:#ff6600;fill-opacity:1;stroke:none;stroke-width:0.34099331px;stroke-linecap:butt;stroke-linejoin:miter;stroke-opacity:1" />
      <rect
         rx="0.19415861"
         y="266.80469"
         x="39.568676"
         height="0.85368437"
         width="3.7196248"
         id="rect2093"
         style="opacity:1;fill:#666666;fill-opacity:1;stroke:#000000;stroke-width:0.30109042;stroke-miterlimit:4;stroke-dasharray:none;stroke-dashoffset:0;stroke-opacity:1" />
      <path
         d="m 53.898346,267.31235 a 1.7988352,1.8598124 0 0 1 -1.7885,1.87043 1.7988352,1.8598124 0 0 1 -1.809111,-1.84912 1.7988352,1.8598124 0 0 1 1.788484,-1.87044 1.7988352,1.8598124 0 0 1 1.809127,1.8491"
         sodipodi:open="true"
         sodipodi:end="6.2774432"
         sodipodi:start="6.2774606"
         sodipodi:ry="1.8598124"
         sodipodi:rx="1.7988352"
         sodipodi:cy="267.323"
         sodipodi:cx="52.099541"
         sodipodi:type="arc"
         id="path2095"
         style="opacity:1;fill:#666666;fill-opacity:1;stroke:#000000;stroke-width:0.30109042;stroke-miterlimit:4;stroke-dasharray:none;stroke-dashoffset:0;stroke-opacity:1" />
      <path
         d="m 52.789861,266.46659 a 0.46207556,0.47773913 0 0 1 -0.459421,0.48047 0.46207556,0.47773913 0 0 1 -0.464715,-0.47499 0.46207556,0.47773913 0 0 1 0.459417,-0.48047 0.46207556,0.47773913 0 0 1 0.464719,0.47499"
         sodipodi:open="true"
         sodipodi:end="6.2774432"
         sodipodi:start="6.2774606"
         sodipodi:ry="0.47773913"
         sodipodi:rx="0.46207556"
         sodipodi:cy="266.46933"
         sodipodi:cx="52.327793"
         sodipodi:type="arc"
         id="path2095-0"
         style="display:inline;opacity:1;fill:#1a1a1a;fill-opacity:1;stroke:#000000;stroke-width:0.07734257;stroke-miterlimit:4;stroke-dasharray:none;stroke-dashoffset:0;stroke-opacity:1" />
      <rect
         rx="0.19415861"
         y="265.70709"
         x="44.020027"
         height="2.926918"
         width="5.3660164"
         id="rect2112"
         style="opacity:1;fill:#333333;fill-opacity:1;stroke:#000000;stroke-width:0.30109042;stroke-miterlimit:4;stroke-dasharray:none;stroke-dashoffset:0;stroke-opacity:1" />
      <rect
         rx="0.19415861"
         y="250.64568"
         x="33.40995"
         height="0.85368437"
         width="27.866699"
         id="rect1964"
         style="opacity:1;fill:#008b84;fill-opacity:1;stroke:#000000;stroke-width:0.30109042;stroke-miterlimit:4;stroke-dasharray:none;stroke-dashoffset:0;stroke-opacity:1" />
      <rect
         rx="0.17385243"
         y="252.81937"
         x="34.760471"
         height="0.40881538"
         width="24.952244"
         id="rect1964-0"
         style="display:inline;opacity:1;fill:#1a1a1a;fill-opacity:1;stroke:#000000;stroke-width:0.19716232;stroke-miterlimit:4;stroke-dasharray:none;stroke-dashoffset:0;stroke-opacity:1" />
      <rect
         rx="0.21361548"
         y="235.73811"
         x="45.159889"
         height="2.9112103"
         width="4.0322666"
         id="rect2019"
         style="opacity:1;fill:#7c8c9b;fill-opacity:1;stroke:#000000;stroke-width:0.32187548;stroke-miterlimit:4;stroke-dasharray:none;stroke-dashoffset:0;stroke-opacity:0" />
      <text
         id="text2118"
         y="232.70949"
         x="39.479542"
         style="font-style:normal;font-weight:normal;font-size:3.13944864px;line-height:1.25;font-family:sans-serif;letter-spacing:0px;word-spacing:0px;fill:#000000;fill-opacity:1;stroke:none;stroke-width:0.19621554"
         xml:space="preserve"><tspan
           style="stroke-width:0.19621554"
           y="232.70949"
           x="39.479542"
           id="tspan2116"
           sodipodi:role="line">3D Printer</tspan></text>
    </g>
    <g
       style="display:inline;opacity:1"
       id="g8735"
       transform="matrix(0.95392875,0,0,0.95392875,-11.845107,-180.88932)">
      <rect
         transform="matrix(-0.06104644,-0.99813493,0.9981154,-0.06136487,0,0)"
         rx="0.072041027"
         y="102.76881"
         x="-239.78726"
         height="13.594728"
         width="1.7918251"
         id="rect2124-8-8"
         style="display:inline;opacity:1;fill:#ececec;fill-opacity:1;stroke:#000000;stroke-width:0.15668404;stroke-miterlimit:4;stroke-dasharray:none;stroke-dashoffset:0;stroke-opacity:1" />
      <path
         inkscape:connector-curvature="0"
         id="path915"
         d="m 97.238834,234.34852 c -0.980913,-0.0831 -1.799992,-0.15216 -1.82017,-0.15353 -0.02015,-10e-4 -0.03071,-0.24913 -0.02346,-0.55058 l 0.01324,-0.54809 1.454943,-0.29169 c 0.80022,-0.16042 1.600611,-0.32604 1.778644,-0.36804 0.178034,-0.042 0.334713,-0.0653 0.348167,-0.0519 0.02888,0.0289 0.0754,1.9393 0.04972,2.04346 -0.01553,0.0629 -0.230496,0.0534 -1.801077,-0.0796 z"
         style="opacity:1;fill:#e66629;fill-opacity:1;stroke:#800080;stroke-width:0.07201916;stroke-miterlimit:4;stroke-dasharray:0.07201917, 0.07201917;stroke-dashoffset:0;stroke-opacity:0" />
      <path
         inkscape:connector-curvature="0"
         id="path913"
         d="m 113.07056,242.10828 c -0.52295,0.24087 -1.04884,0.37888 -1.5461,0.40566 -0.30596,0.0165 -0.53189,0.0679 -0.93588,0.21274 l -0.53256,0.191 -0.0956,-0.16388 c -0.0526,-0.0901 -0.17805,-0.27916 -0.27883,-0.42005 l -0.1832,-0.25619 0.18836,-0.36594 c 0.60161,-1.1688 0.83521,-1.68296 0.96942,-2.13374 0.17018,-0.57159 0.2278,-1.20001 0.14995,-1.63543 -0.0502,-0.28094 -0.047,-0.29554 0.0642,-0.29126 0.0643,0.002 0.5987,0.0136 1.18738,0.0247 0.58867,0.0111 1.11855,0.0313 1.17749,0.0449 0.19788,0.0457 2.08692,1.50151 2.76474,2.13071 l 0.29669,0.27541 -0.41233,0.24035 c -0.22671,0.13232 -0.61251,0.37929 -0.85727,0.54891 -0.74478,0.51613 -1.5368,0.99867 -1.95652,1.19199 z"
         style="opacity:1;fill:#e66629;fill-opacity:1;stroke:#800080;stroke-width:0.07201916;stroke-miterlimit:4;stroke-dasharray:0.07201917, 0.07201917;stroke-dashoffset:0;stroke-opacity:0" />
      <text
         id="text24060"
         y="255.87234"
         x="97.603584"
         style="font-style:normal;font-weight:normal;font-size:7.36452627px;line-height:1.25;font-family:sans-serif;letter-spacing:0px;word-spacing:0px;fill:#000000;fill-opacity:1;stroke:none;stroke-width:0.46028289"
         xml:space="preserve"><tspan
           style="stroke-width:0.46028289"
           y="255.87234"
           x="97.603584"
           id="tspan24058"
           sodipodi:role="line">Glue Gun</tspan></text>
      <path
         inkscape:connector-curvature="0"
         id="path907"
         d="m 117.47297,248.33018 -0.19082,-0.01 v -0.31362 -0.31362 h -0.14934 c -0.13718,0 -0.14935,0.007 -0.14935,0.083 0,0.0608 -0.0177,0.083 -0.0664,0.083 -0.0487,0 -0.0664,-0.0221 -0.0664,-0.083 0,-0.0664 -0.0166,-0.083 -0.083,-0.083 -0.0664,0 -0.083,0.0166 -0.083,0.083 0,0.0456 -0.0162,0.083 -0.0361,0.083 -0.0198,0 -0.17822,-0.13068 -0.35199,-0.29039 -0.21243,-0.19525 -0.29847,-0.2939 -0.26262,-0.30112 0.0313,-0.006 0.0533,-0.0439 0.0533,-0.0913 0,-0.0631 -0.0174,-0.0805 -0.0805,-0.0805 -0.0458,0 -0.0852,0.0221 -0.0913,0.0511 -0.007,0.0357 -0.0959,-0.0247 -0.29159,-0.19912 -0.15448,-0.13766 -0.29004,-0.25029 -0.30124,-0.25029 -0.0112,0 -0.0138,-0.0448 -0.006,-0.0996 0.0131,-0.089 0.005,-0.0996 -0.0721,-0.0996 -0.0853,0 -0.0867,-0.004 -0.0867,-0.23231 v -0.23231 h 0.23231 0.23232 v 0.14934 c 0,0.13717 0.007,0.14934 0.083,0.14934 0.08,0 0.083,-0.008 0.083,-0.21571 0,-0.20798 -0.003,-0.21572 -0.083,-0.21572 -0.0762,0 -0.083,-0.0122 -0.083,-0.14934 0,-0.13718 0.007,-0.14935 0.083,-0.14935 0.0609,0 0.083,0.0177 0.083,0.0664 0,0.0566 0.0222,0.0664 0.14933,0.0664 h 0.14935 v -0.14935 c 0,-0.13717 -0.007,-0.14934 -0.083,-0.14934 -0.0664,0 -0.083,-0.0166 -0.083,-0.083 0,-0.0762 -0.0122,-0.083 -0.14934,-0.083 -0.12722,0 -0.14934,-0.01 -0.14934,-0.0664 0,-0.0487 0.0221,-0.0664 0.083,-0.0664 0.0824,0 0.083,-0.002 0.083,-0.29869 0,-0.29647 -5.8e-4,-0.29868 -0.083,-0.29868 -0.0762,0 -0.083,-0.0122 -0.083,-0.14935 0,-0.12721 -0.01,-0.14933 -0.0664,-0.14933 -0.0487,0 -0.0664,-0.0221 -0.0664,-0.083 0,-0.0664 -0.0166,-0.083 -0.083,-0.083 -0.0608,0 -0.083,-0.0177 -0.083,-0.0664 0,-0.0487 -0.0221,-0.0664 -0.083,-0.0664 -0.0774,0 -0.083,-0.0111 -0.083,-0.16594 v -0.16593 h 0.23233 c 0.21019,0 0.23231,-0.006 0.23231,-0.0664 0,-0.06 -0.0221,-0.0664 -0.23231,-0.0664 -0.22567,0 -0.23231,-0.002 -0.23231,-0.083 0,-0.0608 -0.0177,-0.083 -0.0664,-0.083 -0.0566,0 -0.0664,-0.0221 -0.0664,-0.14935 v -0.14934 h 0.23231 c 0.21018,0 0.23231,-0.006 0.23231,-0.0664 0,-0.0617 -0.0221,-0.0664 -0.31528,-0.0664 -0.31417,0 -0.31527,-3e-4 -0.31527,-0.083 0,-0.0762 -0.0122,-0.083 -0.14935,-0.083 h -0.14934 v -0.14935 c 0,-0.13717 0.007,-0.14934 0.083,-0.14934 0.0762,0 0.083,-0.0122 0.083,-0.14934 0,-0.13718 -0.007,-0.14935 -0.083,-0.14935 -0.0762,0 -0.083,-0.0122 -0.083,-0.14933 v -0.14934 h 0.23231 c 0.22567,0 0.23231,-0.002 0.23231,-0.083 0,-0.0806 -0.007,-0.083 -0.23231,-0.083 -0.21018,0 -0.23231,-0.006 -0.23231,-0.0664 0,-0.0442 -0.0222,-0.0664 -0.0664,-0.0664 -0.0636,0 -0.0664,-0.0221 -0.0664,-0.53099 v -0.531 h -0.14936 c -0.12721,0 -0.14934,0.01 -0.14934,0.0664 0,0.0487 -0.0221,0.0664 -0.083,0.0664 -0.0664,0 -0.083,0.0166 -0.083,0.083 0,0.0608 -0.0177,0.083 -0.0664,0.083 -0.0566,0 -0.0664,-0.0222 -0.0664,-0.14935 0,-0.13717 -0.007,-0.14934 -0.083,-0.14934 -0.0806,0 -0.083,-0.007 -0.083,-0.23231 0,-0.22567 -0.002,-0.23231 -0.083,-0.23231 h -0.083 v -0.53099 -0.53099 h -0.14934 c -0.12722,0 -0.14934,-0.01 -0.14934,-0.0664 0,-0.0487 0.0221,-0.0664 0.083,-0.0664 0.0824,0 0.083,-0.002 0.083,-0.29868 0,-0.27656 0.005,-0.29868 0.0664,-0.29868 0.0487,0 0.0664,-0.0221 0.0664,-0.083 0,-0.0664 0.0166,-0.083 0.083,-0.083 0.0762,0 0.083,-0.0122 0.083,-0.14934 0,-0.13717 -0.007,-0.14934 -0.083,-0.14934 -0.0664,0 -0.083,-0.0166 -0.083,-0.083 0,-0.0608 -0.0177,-0.083 -0.0664,-0.083 -0.0442,0 -0.0664,-0.0221 -0.0664,-0.0664 0,-0.0566 -0.0222,-0.0664 -0.14934,-0.0664 -0.13718,0 -0.14934,-0.007 -0.14934,-0.083 0,-0.0664 -0.0166,-0.083 -0.083,-0.083 -0.0608,0 -0.083,-0.0177 -0.083,-0.0664 0,-0.0442 -0.0221,-0.0664 -0.0664,-0.0664 -0.0487,0 -0.0664,-0.0221 -0.0664,-0.083 0,-0.0664 -0.0166,-0.083 -0.083,-0.083 -0.0608,0 -0.083,-0.0177 -0.083,-0.0664 0,-0.0442 -0.0221,-0.0664 -0.0664,-0.0664 -0.0442,0 -0.0664,0.0221 -0.0664,0.0664 0,0.0575 -0.0221,0.0664 -0.16594,0.0664 -0.14381,0 -0.16594,-0.009 -0.16594,-0.0664 0,-0.0642 -0.0221,-0.0664 -0.66374,-0.0664 h -0.66372 v -0.083 c 0,-0.0664 -0.0166,-0.083 -0.083,-0.083 -0.0619,0 -0.083,-0.0175 -0.083,-0.069 0,-0.0669 -0.0131,-0.0686 -0.44807,-0.0581 l -0.44807,0.0108 3e-5,-0.17423 3e-5,-0.17423 h -0.2323 c -0.22568,0 -0.23232,0.002 -0.23232,0.083 0,0.0815 -0.005,0.083 -0.26278,0.083 -0.14453,0 -0.28267,0.008 -0.30698,0.0171 -0.035,0.0135 -0.0419,-0.035 -0.0333,-0.23231 l 0.0109,-0.24936 h -0.30131 c -0.29927,0 -0.3013,5.7e-4 -0.3013,0.083 v 0.083 h -0.46462 -0.46462 v -0.083 -0.083 h -0.36506 c -0.34293,0 -0.36506,-0.004 -0.36506,-0.0664 0,-0.0649 -0.0221,-0.0664 -0.99561,-0.0664 h -0.99561 v -0.083 -0.083 h -0.36506 -0.36506 v 0.083 0.083 h -0.531 -0.53099 v -0.14934 -0.14934 h -0.4646 c -0.44249,0 -0.46462,0.003 -0.46462,0.0664 0,0.0442 -0.0221,0.0664 -0.0664,0.0664 -0.0565,0 -0.0664,-0.0221 -0.0664,-0.14935 v -0.14933 h -0.59737 -0.59736 v -0.14935 -0.14934 h -0.38166 -0.381647 v -0.083 c 0,-0.0664 -0.01659,-0.083 -0.08297,-0.083 -0.06084,0 -0.08297,-0.0177 -0.08297,-0.0664 0,-0.0566 0.02213,-0.0664 0.149342,-0.0664 0.137174,0 0.149342,-0.007 0.149342,-0.083 0,-0.0762 -0.01218,-0.083 -0.149342,-0.083 -0.127218,0 -0.149342,-0.01 -0.149342,-0.0664 0,-0.0566 -0.02212,-0.0664 -0.149342,-0.0664 h -0.149342 v -0.14934 c 0,-0.12722 -0.0098,-0.14935 -0.06637,-0.14935 -0.04867,0 -0.06638,-0.0221 -0.06638,-0.083 0,-0.0664 -0.01659,-0.083 -0.08297,-0.083 -0.06084,0 -0.08297,-0.0177 -0.08297,-0.0664 0,-0.0566 -0.02212,-0.0664 -0.149342,-0.0664 h -0.149342 v 0.14933 0.14934 h -0.149342 c -0.137175,0 -0.149342,-0.007 -0.149342,-0.083 0,-0.0762 -0.01218,-0.083 -0.149343,-0.083 h -0.149341 v -0.21572 c 0,-0.20797 -0.003,-0.21571 -0.08297,-0.21571 -0.07621,0 -0.08297,0.0122 -0.08297,0.14934 0,0.12722 -0.0098,0.14935 -0.06637,0.14935 -0.06172,0 -0.06637,-0.0221 -0.06637,-0.31529 0,-0.31417 -3.02e-4,-0.31527 -0.08297,-0.31527 -0.07621,0 -0.08297,-0.0122 -0.08297,-0.14934 0,-0.12722 -0.0098,-0.14935 -0.06637,-0.14935 -0.06235,0 -0.06637,-0.0221 -0.06637,-0.36506 v -0.36505 h -0.08297 -0.08297 v -0.68034 c 0,-0.65821 -0.0022,-0.68034 -0.06637,-0.68034 -0.04867,0 -0.06637,-0.0221 -0.06637,-0.083 0,-0.0608 0.0177,-0.083 0.06637,-0.083 0.04425,0 0.06637,-0.0221 0.06637,-0.0664 0,-0.0442 -0.02213,-0.0664 -0.06637,-0.0664 -0.05449,0 -0.06646,-0.0223 -0.06683,-0.12445 -3.02e-4,-0.0684 -0.0079,-0.16179 -0.01696,-0.20742 -0.0091,-0.0456 -0.0076,-0.0643 0.0032,-0.0415 0.01361,0.0286 0.111556,0.0415 0.315645,0.0415 0.273794,0 0.295918,-0.005 0.295918,-0.0664 0,-0.0566 -0.02212,-0.0664 -0.149341,-0.0664 -0.137174,0 -0.149342,-0.007 -0.149342,-0.083 0,-0.08 0.0077,-0.083 0.215716,-0.083 0.201603,0 0.215711,-0.005 0.215639,-0.0747 -7.2e-5,-0.0727 0.0078,-0.0744 0.298686,-0.064 l 0.29876,0.0107 v -0.0853 c 0,-0.079 0.01107,-0.0853 0.149341,-0.0853 0.132756,0 0.14934,-0.008 0.149321,-0.0747 -1.8e-5,-0.069 0.01255,-0.0738 0.165936,-0.0632 0.148613,0.0103 0.165957,0.005 0.165957,-0.0561 0,-0.0951 0.05275,-0.11746 0.25506,-0.10809 0.17453,0.008 0.176373,0.007 0.176373,-0.0885 0,-0.0709 0.02212,-0.10672 0.08297,-0.13445 0.07328,-0.0334 0.08297,-0.0301 0.08297,0.0278 0,0.0587 0.0229,0.0657 0.215715,0.0657 0.207979,0 0.215719,-0.003 0.215719,-0.083 0,-0.0608 -0.0177,-0.083 -0.06637,-0.083 -0.08072,0 -0.09176,-0.11591 -0.01388,-0.14579 0.02887,-0.0111 0.20061,-0.0201 0.38165,-0.0201 0.30703,0 0.32916,-0.005 0.32916,-0.0664 0,-0.0565 0.0221,-0.0664 0.14934,-0.0664 h 0.14934 v 0.14935 0.14934 h 0.531 0.53099 v -0.083 -0.083 h -0.38167 c -0.35952,0 -0.38165,-0.004 -0.38165,-0.0664 0,-0.0651 0.0221,-0.0664 1.12836,-0.0664 h 1.12837 v -0.083 -0.083 h 1.06198 c 0.92187,0 1.06199,-0.007 1.06199,-0.0498 0,-0.0278 -0.0331,-0.0525 -0.0747,-0.0558 -0.23452,-0.0188 0.73039,-0.042 1.32749,-0.0318 0.66495,0.0113 0.70522,0.0156 0.70522,0.0747 0,0.0578 0.0297,0.0627 0.38165,0.0627 0.35953,0 0.38165,-0.004 0.38165,-0.0664 0,-0.0442 0.0221,-0.0664 0.0664,-0.0664 0.0726,0 0.0915,-0.0839 0.0249,-0.11076 -0.0228,-0.009 0.0719,-0.0179 0.21051,-0.0194 0.13859,-0.002 0.43355,-0.0124 0.65545,-0.0243 l 0.40345,-0.0217 v 0.0881 0.0881 h 0.36506 0.36506 v -0.083 -0.083 h 0.53099 c 0.42598,0 0.531,-0.009 0.531,-0.0452 0,-0.0525 0.15907,-0.0695 1.12836,-0.12009 0.35593,-0.0186 0.72555,-0.0424 0.82138,-0.0528 0.14435,-0.0158 0.17423,-0.01 0.17423,0.0332 0,0.0397 0.0357,0.0522 0.14935,0.0522 0.10502,0 0.14934,-0.0136 0.14934,-0.0459 0,-0.0481 0.0973,-0.0856 0.22401,-0.0864 0.0527,-3.1e-4 0.0747,0.0191 0.0747,0.0659 0,0.0601 0.0221,0.0664 0.23231,0.0664 0.22568,0 0.23232,-0.002 0.23232,-0.083 0,-0.0608 0.0177,-0.083 0.0664,-0.083 0.0487,0 0.0664,0.0222 0.0664,0.083 0,0.0762 0.0122,0.083 0.14933,0.083 0.13718,0 0.14934,-0.007 0.14934,-0.083 v -0.083 h 0.46463 c 0.38046,0 0.46462,-0.009 0.46462,-0.0474 0,-0.0693 0.34878,-0.10475 0.90434,-0.092 0.26605,0.006 0.29039,0.0122 0.29039,0.073 0,0.0615 0.0221,0.0664 0.29869,0.0664 0.27656,0 0.29868,-0.005 0.29868,-0.0664 0,-0.0617 0.0221,-0.0664 0.31528,-0.0664 0.31417,0 0.31528,-3e-4 0.31528,-0.083 v -0.083 h 0.5144 0.5144 v 0.083 c 0,0.0664 0.0166,0.083 0.083,0.083 0.0664,0 0.083,-0.0166 0.083,-0.083 0,-0.0762 0.0122,-0.083 0.14934,-0.083 0.13718,0 0.14935,0.007 0.14935,0.083 0,0.0824 0.002,0.083 0.29868,0.083 h 0.29869 v 0.14935 c 0,0.13717 0.007,0.14934 0.083,0.14934 0.0608,0 0.083,0.0177 0.083,0.0664 0,0.0442 0.0221,0.0664 0.0664,0.0664 0.0487,0 0.0664,0.0222 0.0664,0.083 0,0.08 -0.008,0.083 -0.21572,0.083 -0.19359,0 -0.21571,0.007 -0.21571,0.0664 0,0.0442 0.0221,0.0664 0.0664,0.0664 0.0487,0 0.0664,0.0221 0.0664,0.083 0,0.0664 0.0166,0.083 0.083,0.083 0.0608,0 0.083,0.0177 0.083,0.0664 0,0.0442 0.0221,0.0664 0.0664,0.0664 0.0487,0 0.0664,0.0221 0.0664,0.083 0,0.0664 0.0166,0.083 0.083,0.083 0.0824,0 0.083,0.002 0.083,0.29868 0,0.29648 -5.7e-4,0.29869 -0.083,0.29869 -0.0609,0 -0.083,-0.0177 -0.083,-0.0664 0,-0.0442 -0.0221,-0.0664 -0.0664,-0.0664 -0.0487,0 -0.0664,-0.0222 -0.0664,-0.083 0,-0.0824 -0.002,-0.083 -0.29868,-0.083 h -0.29869 v 0.14935 c 0,0.13717 -0.007,0.14934 -0.083,0.14934 -0.08,0 -0.083,-0.008 -0.083,-0.21571 v -0.21572 h -0.14935 c -0.12721,0 -0.14934,0.01 -0.14934,0.0664 0,0.06 -0.0221,0.0664 -0.23231,0.0664 -0.21018,0 -0.23231,-0.006 -0.23231,-0.0664 0,-0.0615 -0.0222,-0.0664 -0.29868,-0.0664 -0.27656,0 -0.29869,0.005 -0.29869,0.0664 0,0.0487 0.0221,0.0664 0.083,0.0664 0.0762,0 0.083,0.0122 0.083,0.14935 0,0.13717 -0.007,0.14934 -0.083,0.14934 -0.0762,0 -0.083,0.0122 -0.083,0.14934 v 0.14934 h -0.29868 -0.29869 v -0.14934 -0.14934 h -0.14933 -0.14935 v 0.14934 c 0,0.13717 -0.007,0.14934 -0.083,0.14934 -0.0608,0 -0.083,-0.0177 -0.083,-0.0664 0,-0.0442 -0.0221,-0.0664 -0.0664,-0.0664 -0.0487,0 -0.0664,-0.0221 -0.0664,-0.083 v -0.083 h -0.46462 -0.46462 v 0.083 c 0,0.0774 0.0111,0.083 0.16594,0.083 h 0.16593 v 0.14933 0.14935 h -0.53099 -0.53099 v -0.083 c 0,-0.0762 0.0122,-0.083 0.14934,-0.083 0.12722,0 0.14934,-0.01 0.14934,-0.0664 0,-0.0566 -0.0221,-0.0664 -0.14934,-0.0664 -0.13717,0 -0.14934,-0.007 -0.14934,-0.083 0,-0.0824 0.002,-0.083 0.29868,-0.083 0.27656,0 0.29869,-0.005 0.29869,-0.0664 0,-0.0566 0.0221,-0.0664 0.14934,-0.0664 0.13717,0 0.14934,-0.007 0.14934,-0.083 v -0.083 h -0.53099 -0.531 v 0.083 c 0,0.0762 -0.0122,0.083 -0.14934,0.083 -0.12722,0 -0.14934,0.01 -0.14934,0.0664 0,0.0487 -0.0221,0.0664 -0.083,0.0664 -0.0664,0 -0.083,0.0166 -0.083,0.083 0,0.0608 -0.0177,0.083 -0.0664,0.083 -0.0566,0 -0.0664,-0.0221 -0.0664,-0.14934 0,-0.13718 -0.007,-0.14935 -0.083,-0.14935 -0.0609,0 -0.083,0.0177 -0.083,0.0664 0,0.0615 -0.0221,0.0664 -0.29869,0.0664 -0.29647,0 -0.29869,5.7e-4 -0.29869,0.083 0,0.0608 -0.0177,0.083 -0.0664,0.083 -0.0442,0 -0.0664,0.0221 -0.0664,0.0664 0,0.0487 -0.0221,0.0664 -0.083,0.0664 -0.0762,0 -0.083,-0.0122 -0.083,-0.14934 v -0.14934 h -0.14934 c -0.13718,0 -0.14935,0.007 -0.14935,0.083 v 0.083 h -0.97902 c -0.95689,0 -0.97901,0.002 -0.97901,0.0664 0,0.06 -0.0221,0.0664 -0.23232,0.0664 -0.22567,0 -0.23231,0.002 -0.23231,0.083 v 0.083 h -2.40629 c -2.38394,0 -2.40606,5.7e-4 -2.40606,0.0664 0,0.0625 -0.0221,0.0664 -0.38166,0.0664 h -0.38165 v 0.083 0.083 h -0.53099 -0.53099 v -0.083 -0.083 h -0.91265 -0.91265 v 0.083 0.083 h -0.44802 -0.44803 v -0.083 c 0,-0.0806 -0.007,-0.083 -0.23231,-0.083 -0.22567,0 -0.23231,0.002 -0.23231,0.083 0,0.08 -0.008,0.083 -0.21571,0.083 -0.20798,0 -0.21572,0.003 -0.21572,0.083 0,0.0762 -0.0122,0.083 -0.14934,0.083 -0.12722,0 -0.14934,0.01 -0.14934,0.0664 0,0.0566 -0.0221,0.0664 -0.14935,0.0664 h -0.14793 v 0.14934 0.14934 h -0.530973 -0.530994 v 0.14935 0.14934 h 0.215716 c 0.207974,0 0.215717,0.003 0.215717,0.083 0,0.0664 0.01659,0.083 0.08297,0.083 0.06084,0 0.08297,0.0177 0.08297,0.0664 0,0.0601 -0.02213,0.0664 -0.23231,0.0664 -0.225672,0 -0.232309,0.002 -0.232309,0.083 0,0.0823 0.0022,0.083 0.298684,0.083 0.276559,0 0.298679,0.005 0.298679,0.0664 0,0.0575 0.0221,0.0664 0.16594,0.0664 0.14381,0 0.16593,-0.009 0.16593,-0.0664 0,-0.0566 0.0221,-0.0664 0.14935,-0.0664 0.12721,0 0.14934,0.01 0.14934,0.0664 0,0.0631 0.0221,0.0664 0.44802,0.0664 0.42591,0 0.44803,-0.003 0.44803,-0.0664 0,-0.0648 0.0221,-0.0664 0.91265,-0.0664 h 0.91264 v -0.083 -0.083 h 1.51002 c 1.48788,0 1.51001,-0.001 1.51001,-0.0664 0,-0.0652 0.0221,-0.0664 1.19474,-0.0664 h 1.19473 v -0.083 -0.083 h 1.44364 c 1.42152,0 1.44364,-0.001 1.44364,-0.0664 0,-0.0653 0.0221,-0.0664 1.42705,-0.0664 h 1.42704 v 0.29868 0.29869 h -0.14934 -0.14934 v 0.14934 c 0,0.13717 0.007,0.14934 0.083,0.14934 h 0.083 v 0.44803 c 0,0.42589 0.003,0.44802 0.0664,0.44802 0.0487,0 0.0664,0.0221 0.0664,0.083 0,0.0608 -0.0177,0.083 -0.0664,0.083 -0.0566,0 -0.0664,0.0221 -0.0664,0.14934 0,0.12722 0.01,0.14934 0.0664,0.14934 0.0566,0 0.0664,0.0221 0.0664,0.14935 0,0.13716 0.007,0.14933 0.083,0.14933 0.0664,0 0.083,0.0166 0.083,0.083 0,0.0664 -0.0166,0.083 -0.083,0.083 -0.0608,0 -0.083,0.0177 -0.083,0.0664 0,0.0639 -0.0221,0.0664 -0.59737,0.0664 h -0.59737 v 0.083 c 0,0.0608 0.0177,0.083 0.0664,0.083 0.0442,0 0.0664,0.0221 0.0664,0.0664 0,0.0615 -0.0221,0.0664 -0.29868,0.0664 -0.29648,0 -0.29869,5.7e-4 -0.29869,0.083 0,0.0609 -0.0177,0.083 -0.0664,0.083 -0.0442,0 -0.0664,0.0221 -0.0664,0.0664 0,0.0487 -0.0221,0.0664 -0.083,0.0664 -0.0608,0 -0.083,-0.0177 -0.083,-0.0664 0,-0.0442 -0.0221,-0.0664 -0.0664,-0.0664 -0.0566,0 -0.0664,0.0221 -0.0664,0.14934 0,0.12722 0.01,0.14934 0.0664,0.14934 0.0566,0 0.0664,0.0221 0.0664,0.14934 0,0.12722 -0.01,0.14935 -0.0664,0.14935 -0.0615,0 -0.0664,0.0221 -0.0664,0.29868 v 0.29869 h 0.14935 c 0.13718,0 0.14934,0.007 0.14934,0.083 v 0.083 h 0.36506 0.36506 v -0.083 -0.083 h 1.36068 c 1.33854,0 1.36066,-0.001 1.36066,-0.0664 0,-0.06 0.0221,-0.0664 0.23232,-0.0664 0.21018,0 0.23231,0.006 0.23231,0.0664 0,0.0601 0.0221,0.0664 0.23231,0.0664 0.21018,0 0.2323,-0.006 0.2323,-0.0664 0,-0.0566 0.0222,-0.0664 0.14935,-0.0664 0.13717,0 0.14934,-0.007 0.14934,-0.083 0,-0.08 0.008,-0.083 0.21571,-0.083 h 0.21572 v 0.14934 c 0,0.13718 0.007,0.14935 0.083,0.14935 0.0762,0 0.083,-0.0122 0.083,-0.14935 v -0.14934 h 0.14935 0.14934 v 0.14934 0.14935 h 0.14934 0.14934 v 0.23231 c 0,0.21018 -0.006,0.2323 -0.0664,0.2323 -0.0442,0 -0.0664,0.0222 -0.0664,0.0664 0,0.0442 0.0221,0.0664 0.0664,0.0664 0.0487,0 0.0664,0.0221 0.0664,0.083 0,0.0762 -0.0122,0.083 -0.14934,0.083 -0.13717,0 -0.14934,0.007 -0.14934,0.083 0,0.0608 -0.0177,0.083 -0.0664,0.083 -0.0566,0 -0.0664,0.0221 -0.0664,0.14933 0,0.12722 0.01,0.14935 0.0664,0.14935 0.0565,0 0.0664,0.0221 0.0664,0.14934 0,0.13717 0.007,0.14934 0.083,0.14934 0.08,0 0.083,0.008 0.083,0.21572 0,0.19359 0.007,0.21571 0.0664,0.21571 0.0442,0 0.0664,-0.0221 0.0664,-0.0664 0,-0.0487 0.0221,-0.0664 0.083,-0.0664 0.0609,0 0.083,0.0177 0.083,0.0664 0,0.0442 0.0221,0.0664 0.0664,0.0664 0.0601,0 0.0664,0.0221 0.0664,0.23231 v 0.23232 h -0.14934 c -0.13718,0 -0.14935,0.007 -0.14935,0.083 0,0.0762 0.0122,0.083 0.14935,0.083 0.12721,0 0.14934,0.01 0.14934,0.0664 0,0.0487 0.0221,0.0664 0.083,0.0664 0.0806,0 0.083,0.007 0.083,0.23231 0,0.21019 0.006,0.23231 0.0664,0.23231 0.0596,0 0.0664,0.0221 0.0664,0.21571 0,0.20798 0.003,0.21572 0.083,0.21572 0.0827,0 0.083,0.001 0.083,0.31528 0,0.29315 0.005,0.31528 0.0664,0.31528 0.0566,0 0.0664,0.0221 0.0664,0.14934 0,0.13717 0.007,0.14934 0.083,0.14934 0.0608,0 0.083,0.0177 0.083,0.0664 0,0.0373 0.0222,0.0664 0.0506,0.0664 0.082,0 0.12232,0.1629 0.11698,0.47292 -0.005,0.27228 -5.7e-4,0.29038 0.063,0.29038 0.0647,0 0.068,0.019 0.068,0.38165 v 0.38166 h 0.083 c 0.0762,0 0.083,0.0122 0.083,0.14934 0,0.12722 0.01,0.14934 0.0664,0.14934 0.06,0 0.0664,0.0222 0.0664,0.23231 0,0.22567 0.002,0.23231 0.083,0.23231 0.0608,0 0.083,0.0177 0.083,0.0664 0,0.0566 -0.0221,0.0664 -0.14934,0.0664 -0.13718,0 -0.14934,0.007 -0.14934,0.083 0,0.0762 0.0122,0.083 0.14934,0.083 h 0.14934 v 0.14935 c 0,0.12721 0.01,0.14934 0.0664,0.14934 0.0442,0 0.0664,0.0221 0.0664,0.0664 0,0.0487 0.0221,0.0664 0.083,0.0664 h 0.083 v 0.38165 c 0,0.35952 0.004,0.38165 0.0664,0.38165 0.0487,0 0.0664,0.0221 0.0664,0.083 0,0.0774 0.0111,0.083 0.16594,0.083 0.14381,0 0.16594,0.009 0.16594,0.0664 0,0.0575 -0.0221,0.0664 -0.16594,0.0664 h -0.16594 v 0.23231 c 0,0.22568 0.002,0.23231 0.083,0.23231 0.0608,0 0.083,0.0177 0.083,0.0664 0,0.0483 0.0221,0.0664 0.0812,0.0664 h 0.0812 l 0.01,0.46427 c 0.009,0.41219 5.7e-4,0.49777 -0.0729,0.76311 -0.0787,0.28367 -0.0876,0.29886 -0.17424,0.29904 -0.086,1.5e-4 -0.0913,0.009 -0.0913,0.14953 v 0.14934 h -0.14934 c -0.13718,0 -0.14934,0.007 -0.14934,0.083 0,0.0608 -0.0177,0.083 -0.0664,0.083 -0.0442,0 -0.0664,0.0222 -0.0664,0.0664 0,0.0487 -0.0222,0.0664 -0.083,0.0664 -0.0664,0 -0.083,0.0166 -0.083,0.083 0,0.0608 -0.0177,0.083 -0.0664,0.083 -0.0566,0 -0.0664,0.0221 -0.0664,0.14935 v 0.14934 h -0.23232 c -0.21018,0 -0.23231,0.006 -0.23231,0.0664 0,0.0487 -0.0221,0.0664 -0.083,0.0664 -0.0664,0 -0.083,0.0166 -0.083,0.083 0,0.0823 -0.002,0.083 -0.29868,0.083 -0.27656,0 -0.29869,0.005 -0.29869,0.0664 0,0.0596 -0.0221,0.0664 -0.21571,0.0664 -0.18953,0 -0.21572,0.008 -0.21572,0.0628 0,0.086 -0.0617,0.10311 -0.37164,0.10311 -0.25032,0 -0.2656,0.004 -0.2493,0.0664 0.0142,0.0543 0.001,0.0664 -0.0725,0.0664 -0.0494,0 -0.104,0.0112 -0.12134,0.0249 -0.0173,0.0137 -0.1174,0.0204 -0.22236,0.015 z m -1.55149,-1.53325 c 0,-0.15487 0.006,-0.16593 0.083,-0.16593 0.08,0 0.083,-0.008 0.083,-0.21572 0,-0.20797 -0.003,-0.21571 -0.083,-0.21571 -0.0762,0 -0.083,0.0121 -0.083,0.14934 v 0.14934 h -0.14934 c -0.12722,0 -0.14935,0.01 -0.14935,0.0664 0,0.0487 0.0221,0.0664 0.083,0.0664 0.0774,0 0.083,0.0111 0.083,0.16593 0,0.14382 0.009,0.16594 0.0664,0.16594 0.0575,0 0.0664,-0.0222 0.0664,-0.16594 z m 4.54663,0.083 c 0,-0.0664 -0.0166,-0.083 -0.083,-0.083 -0.0664,0 -0.083,-0.0166 -0.083,-0.083 0,-0.0762 0.0122,-0.083 0.14935,-0.083 0.12721,0 0.14934,-0.01 0.14934,-0.0664 0,-0.0565 -0.0221,-0.0664 -0.14934,-0.0664 -0.12722,0 -0.14935,0.01 -0.14935,0.0664 0,0.0442 -0.0221,0.0664 -0.0664,0.0664 -0.0487,0 -0.0664,0.0222 -0.0664,0.083 0,0.0664 -0.0166,0.083 -0.083,0.083 -0.0664,0 -0.083,0.0166 -0.083,0.083 0,0.0806 0.007,0.083 0.23231,0.083 0.22567,0 0.23231,-0.002 0.23231,-0.083 z m -4.97807,-0.531 c 0,-0.13717 -0.007,-0.14934 -0.083,-0.14934 -0.0762,0 -0.083,0.0121 -0.083,0.14934 0,0.13717 0.007,0.14934 0.083,0.14934 0.0762,0 0.083,-0.0122 0.083,-0.14934 z m 0.59737,-1.14496 c 0,-0.0487 -0.0221,-0.0664 -0.083,-0.0664 -0.0608,0 -0.083,0.0177 -0.083,0.0664 0,0.0487 0.0222,0.0664 0.083,0.0664 0.0608,0 0.083,-0.0177 0.083,-0.0664 z m 3.31871,0 c 0,-0.0442 0.0221,-0.0664 0.0664,-0.0664 0.0636,0 0.0664,-0.0221 0.0664,-0.53099 v -0.531 h -0.14934 -0.14934 v 0.59737 0.59737 h 0.083 c 0.0609,0 0.083,-0.0177 0.083,-0.0664 z m 1.65936,-0.14934 c 0,-0.0664 -0.0166,-0.083 -0.083,-0.083 -0.0664,0 -0.083,0.0166 -0.083,0.083 0,0.0664 0.0166,0.083 0.083,0.083 0.0664,0 0.083,-0.0166 0.083,-0.083 z m -5.144,-0.89605 c 0,-0.0608 -0.0177,-0.083 -0.0664,-0.083 -0.0565,0 -0.0664,-0.0221 -0.0664,-0.14934 0,-0.13717 -0.007,-0.14934 -0.083,-0.14934 -0.0762,0 -0.083,0.0122 -0.083,0.14934 0,0.13717 0.007,0.14934 0.083,0.14934 0.0664,0 0.083,0.0166 0.083,0.083 0,0.0608 0.0177,0.083 0.0664,0.083 0.0487,0 0.0664,-0.0222 0.0664,-0.083 z m -0.13275,-0.7633 c 0,-0.0664 -0.0166,-0.083 -0.083,-0.083 -0.0664,0 -0.083,0.0166 -0.083,0.083 0,0.0664 0.0166,0.083 0.083,0.083 0.0664,0 0.083,-0.0166 0.083,-0.083 z m 4.3807,-1.12837 c 0,-0.13717 -0.007,-0.14934 -0.083,-0.14934 -0.0762,0 -0.083,0.0122 -0.083,0.14934 0,0.13718 0.007,0.14934 0.083,0.14934 0.0762,0 0.083,-0.0122 0.083,-0.14934 z m -1.65936,-1.74232 c 0,-0.0487 -0.0222,-0.0664 -0.083,-0.0664 -0.0608,0 -0.083,0.0177 -0.083,0.0664 0,0.0487 0.0221,0.0664 0.083,0.0664 0.0608,0 0.083,-0.0177 0.083,-0.0664 z m -0.29868,-0.38165 c 0,-0.12722 0.01,-0.14935 0.0664,-0.14935 0.0442,0 0.0664,-0.0221 0.0664,-0.0664 0,-0.0487 0.0221,-0.0664 0.083,-0.0664 0.0827,0 0.083,-0.001 0.083,-0.31528 0,-0.31417 -3.1e-4,-0.31528 -0.083,-0.31528 -0.0608,0 -0.083,-0.0177 -0.083,-0.0664 0,-0.0442 -0.0222,-0.0664 -0.0664,-0.0664 -0.0566,0 -0.0664,-0.0221 -0.0664,-0.14934 0,-0.13717 -0.007,-0.14934 -0.083,-0.14934 -0.0762,0 -0.083,-0.0122 -0.083,-0.14934 0,-0.13718 -0.007,-0.14935 -0.083,-0.14935 -0.0806,0 -0.083,-0.007 -0.083,-0.2323 v -0.23231 h -0.36505 -0.36506 v 0.083 c 0,0.0664 -0.0166,0.083 -0.083,0.083 -0.0608,0 -0.083,0.0177 -0.083,0.0664 0,0.0487 0.0221,0.0664 0.083,0.0664 0.0664,0 0.083,0.0166 0.083,0.083 0,0.0608 0.0177,0.083 0.0664,0.083 0.0623,0 0.0664,0.0221 0.0664,0.36507 v 0.36505 h 0.14935 0.14934 v 0.23231 c 0,0.22568 0.002,0.23231 0.083,0.23231 0.0806,0 0.083,0.007 0.083,0.23231 0,0.21019 0.006,0.23231 0.0664,0.23231 0.0442,0 0.0664,0.0221 0.0664,0.0664 0,0.0575 0.0221,0.0664 0.16593,0.0664 h 0.16594 z m 0.59737,-0.97902 c 0,-0.0487 -0.0221,-0.0664 -0.083,-0.0664 -0.0608,0 -0.083,0.0177 -0.083,0.0664 0,0.0487 0.0222,0.0664 0.083,0.0664 0.0608,0 0.083,-0.0177 0.083,-0.0664 z m -5.14401,-0.38165 c 0,-0.13717 -0.007,-0.14934 -0.083,-0.14934 -0.0762,0 -0.083,0.0121 -0.083,0.14934 0,0.13717 0.007,0.14934 0.083,0.14934 0.0762,0 0.083,-0.0122 0.083,-0.14934 z m -0.16593,-2.25673 v -0.14934 h -0.14934 -0.14935 v 0.14934 0.14934 h 0.14935 0.14934 z m -2.38948,-0.14934 c 0,-0.15487 -0.006,-0.16593 -0.083,-0.16593 -0.0774,0 -0.083,0.0111 -0.083,0.16593 0,0.15488 0.006,0.16594 0.083,0.16594 0.0774,0 0.083,-0.0111 0.083,-0.16594 z m -1.99123,-0.23231 c 0,-0.0566 -0.0221,-0.0664 -0.14934,-0.0664 -0.12721,0 -0.14934,0.01 -0.14934,0.0664 0,0.0566 0.0221,0.0664 0.14934,0.0664 0.12723,0 0.14934,-0.01 0.14934,-0.0664 z m 0.46463,-0.14934 c 0,-0.0608 -0.0177,-0.083 -0.0664,-0.083 -0.0487,0 -0.0664,0.0221 -0.0664,0.083 0,0.0608 0.0177,0.083 0.0664,0.083 0.0487,0 0.0664,-0.0221 0.0664,-0.083 z m -0.76331,-0.14935 c 0,-0.0442 -0.0221,-0.0664 -0.0664,-0.0664 -0.0443,0 -0.0664,0.0221 -0.0664,0.0664 0,0.0442 0.0221,0.0664 0.0664,0.0664 0.0442,0 0.0664,-0.0221 0.0664,-0.0664 z m 8.7614,-0.29868 c 0,-0.0442 -0.0221,-0.0664 -0.0664,-0.0664 -0.0442,0 -0.0664,0.0221 -0.0664,0.0664 0,0.0442 0.0221,0.0664 0.0664,0.0664 0.0442,0 0.0664,-0.0221 0.0664,-0.0664 z m -6.04005,-0.68033 v -0.14934 h -0.14935 c -0.12721,0 -0.14933,0.01 -0.14933,0.0664 0,0.0487 0.0221,0.0664 0.083,0.0664 0.0664,0 0.083,0.0166 0.083,0.083 0,0.0609 0.0177,0.083 0.0664,0.083 0.0565,0 0.0664,-0.0221 0.0664,-0.14934 z m 0.46462,0.0664 c 0,-0.0608 0.0177,-0.083 0.0664,-0.083 0.0442,0 0.0664,-0.0221 0.0664,-0.0664 0,-0.0442 -0.0222,-0.0664 -0.0664,-0.0664 -0.0487,0 -0.0664,-0.0221 -0.0664,-0.083 0,-0.0664 -0.0166,-0.083 -0.083,-0.083 -0.0806,0 -0.083,0.007 -0.083,0.23231 0,0.22567 0.002,0.23231 0.083,0.23231 0.0664,0 0.083,-0.0166 0.083,-0.083 z m 1.49342,-1.49342 c 0,-0.0762 -0.0122,-0.083 -0.14934,-0.083 -0.13718,0 -0.14935,0.007 -0.14935,0.083 0,0.0762 0.0122,0.083 0.14935,0.083 0.13717,0 0.14934,-0.007 0.14934,-0.083 z m 0.46462,0 c 0,-0.0762 -0.0122,-0.083 -0.14935,-0.083 -0.13717,0 -0.14934,0.007 -0.14934,0.083 0,0.0762 0.0122,0.083 0.14934,0.083 0.13718,0 0.14935,-0.007 0.14935,-0.083 z m -0.13275,-1.06198 c 0,-0.0609 0.0177,-0.083 0.0664,-0.083 0.0566,0 0.0664,-0.0221 0.0664,-0.14934 0,-0.13717 0.007,-0.14934 0.083,-0.14934 0.0762,0 0.083,-0.0122 0.083,-0.14934 0,-0.13718 -0.007,-0.14934 -0.083,-0.14934 -0.0664,0 -0.083,-0.0166 -0.083,-0.083 v -0.083 h -1.36068 -1.36067 v 0.14934 0.14935 h 0.23232 c 0.22566,0 0.2323,0.002 0.2323,0.083 v 0.083 h 0.74671 0.74671 v 0.14934 c 0,0.13717 0.007,0.14934 0.083,0.14934 0.0664,0 0.083,0.0166 0.083,0.083 0,0.0806 0.007,0.083 0.23231,0.083 0.22567,0 0.23231,-0.002 0.23231,-0.083 z m -5.01126,-0.23232 v -0.14934 h -0.59737 -0.59736 v 0.14934 0.14934 h 0.59736 0.59737 z m -11.150869,-0.66374 v -0.68034 h -0.08297 c -0.06637,0 -0.08297,-0.0166 -0.08297,-0.083 0,-0.0608 -0.0177,-0.083 -0.06637,-0.083 -0.04867,0 -0.06637,0.0222 -0.06637,0.083 0,0.0608 0.0177,0.083 0.06637,0.083 0.04425,0 0.06637,0.0221 0.06637,0.0664 0,0.0442 -0.02213,0.0664 -0.06637,0.0664 -0.04867,0 -0.06637,0.0221 -0.06637,0.083 0,0.0608 0.0177,0.083 0.06637,0.083 0.06361,0 0.06637,0.0221 0.06637,0.53099 v 0.531 h 0.08297 0.08297 z m 1.028802,0.0498 c 0,-0.27656 -0.0049,-0.29869 -0.06637,-0.29869 -0.06146,0 -0.06637,0.0221 -0.06637,0.29869 0,0.27656 0.0049,0.29868 0.06637,0.29868 0.06146,0 0.06637,-0.0221 0.06637,-0.29868 z m -1.194737,-1.11177 c 0,-0.0608 -0.0177,-0.083 -0.06637,-0.083 -0.04867,0 -0.06637,0.0221 -0.06637,0.083 0,0.0608 0.0177,0.083 0.06637,0.083 0.04867,0 0.06637,-0.0221 0.06637,-0.083 z m 21.007444,-0.76331 c 0,-0.0664 -0.0166,-0.083 -0.083,-0.083 -0.0664,0 -0.083,0.0166 -0.083,0.083 0,0.0664 0.0166,0.083 0.083,0.083 0.0664,0 0.083,-0.0166 0.083,-0.083 z m -19.348088,-0.14941 c 0,-0.0442 -0.02212,-0.0664 -0.06637,-0.0664 -0.04425,0 -0.06637,0.0221 -0.06637,0.0664 0,0.0442 0.02212,0.0664 0.06637,0.0664 0.04425,0 0.06637,-0.0221 0.06637,-0.0664 z m 0.896048,0 c 0,-0.0566 -0.0221,-0.0664 -0.149337,-0.0664 -0.127217,0 -0.149342,0.01 -0.149342,0.0664 0,0.0565 0.02212,0.0664 0.149342,0.0664 0.127217,0 0.149337,-0.01 0.149337,-0.0664 z m 3.94927,-0.14934 c 0,-0.0823 -0.002,-0.083 -0.29868,-0.083 -0.29647,0 -0.29869,5.7e-4 -0.29869,0.083 0,0.0824 0.002,0.083 0.29869,0.083 0.29647,0 0.29868,-5.7e-4 0.29868,-0.083 z m 14.50277,-0.0664 v -0.14933 h -0.46462 c -0.44249,0 -0.46462,0.003 -0.46462,0.0664 0,0.0442 -0.0221,0.0664 -0.0664,0.0664 -0.0442,0 -0.0664,-0.0221 -0.0664,-0.0664 0,-0.0487 -0.0221,-0.0664 -0.083,-0.0664 -0.0762,0 -0.083,0.0122 -0.083,0.14933 v 0.14935 h 0.61396 0.61397 z m -5.74137,-1.14495 c 0,-0.0566 -0.0221,-0.0664 -0.14934,-0.0664 -0.12722,0 -0.14934,0.01 -0.14934,0.0664 0,0.0566 0.0221,0.0664 0.14934,0.0664 0.12722,0 0.14934,-0.01 0.14934,-0.0664 z m 3.45146,0 c 0,-0.0442 -0.0221,-0.0664 -0.0664,-0.0664 -0.0442,0 -0.0664,0.0221 -0.0664,0.0664 0,0.0442 0.0221,0.0664 0.0664,0.0664 0.0442,0 0.0664,-0.0221 0.0664,-0.0664 z m 1.06199,0 c 0,-0.0566 -0.0221,-0.0664 -0.14934,-0.0664 -0.12722,0 -0.14935,0.01 -0.14935,0.0664 0,0.0566 0.0221,0.0664 0.14935,0.0664 0.12721,0 0.14934,-0.01 0.14934,-0.0664 z m 2.88728,0 c 0,-0.0487 -0.0222,-0.0664 -0.083,-0.0664 -0.0609,0 -0.083,0.0177 -0.083,0.0664 0,0.0487 0.0221,0.0664 0.083,0.0664 0.0608,0 0.083,-0.0177 0.083,-0.0664 z m -1.52661,-0.29869 c 0,-0.0442 -0.0221,-0.0664 -0.0664,-0.0664 -0.0442,0 -0.0664,0.0222 -0.0664,0.0664 0,0.0442 0.0221,0.0664 0.0664,0.0664 0.0442,0 0.0664,-0.0221 0.0664,-0.0664 z"
         style="opacity:1;fill:none;fill-opacity:1;stroke:#800080;stroke-width:0.05092525;stroke-miterlimit:4;stroke-dasharray:0.05092524, 0.05092524;stroke-dashoffset:0;stroke-opacity:0" />
      <path
         inkscape:connector-curvature="0"
         id="path909"
         d="m 117.47297,248.33018 -0.19082,-0.01 v -0.23065 c 0,-0.20853 -0.006,-0.23065 -0.0664,-0.23065 -0.0487,0 -0.0664,-0.0221 -0.0664,-0.083 0,-0.0664 -0.0166,-0.083 -0.083,-0.083 -0.0664,0 -0.083,0.0166 -0.083,0.083 0,0.0608 -0.0177,0.083 -0.0664,0.083 -0.0487,0 -0.0664,-0.0221 -0.0664,-0.083 0,-0.0664 -0.0166,-0.083 -0.083,-0.083 -0.0664,0 -0.083,0.0166 -0.083,0.083 0,0.10334 -0.0661,0.1069 -0.15466,0.008 -0.0838,-0.0933 -1.01919,-0.94701 -1.13631,-1.0371 -0.0631,-0.0485 -0.0835,-0.0909 -0.0758,-0.15763 0.009,-0.0786 -0.001,-0.0913 -0.0747,-0.0913 -0.0833,0 -0.0852,-0.005 -0.0852,-0.23231 v -0.23231 h 0.23231 0.23231 v 0.14934 c 0,0.13718 0.007,0.14935 0.083,0.14935 0.08,0 0.083,-0.008 0.083,-0.21572 0,-0.20797 -0.003,-0.21572 -0.083,-0.21572 -0.0762,0 -0.083,-0.0121 -0.083,-0.14934 v -0.14934 h 0.14934 0.14935 v -0.16593 -0.16594 h -0.14935 c -0.12721,0 -0.14934,-0.01 -0.14934,-0.0664 0,-0.0487 0.0221,-0.0664 0.083,-0.0664 0.0824,0 0.083,-0.002 0.083,-0.29868 0,-0.29648 -5.7e-4,-0.29869 -0.083,-0.29869 -0.0664,0 -0.083,-0.0166 -0.083,-0.083 0,-0.0608 -0.0177,-0.083 -0.0664,-0.083 -0.0565,0 -0.0664,-0.0221 -0.0664,-0.14934 0,-0.13718 -0.007,-0.14935 -0.083,-0.14935 -0.0608,0 -0.083,-0.0177 -0.083,-0.0664 0,-0.0487 -0.0221,-0.0664 -0.083,-0.0664 -0.0664,0 -0.083,-0.0166 -0.083,-0.083 0,-0.0608 -0.0177,-0.083 -0.0664,-0.083 -0.0487,0 -0.0664,-0.0221 -0.0664,-0.083 0,-0.0762 0.0122,-0.083 0.14934,-0.083 0.12721,0 0.14934,-0.01 0.14934,-0.0664 0,-0.0487 -0.0221,-0.0664 -0.083,-0.0664 -0.0664,0 -0.083,-0.0166 -0.083,-0.083 0,-0.0608 -0.0177,-0.083 -0.0664,-0.083 -0.0566,0 -0.0664,-0.0221 -0.0664,-0.14934 v -0.14935 h 0.23231 c 0.21018,0 0.23231,-0.006 0.23231,-0.0664 0,-0.0575 -0.0221,-0.0664 -0.16593,-0.0664 h -0.16594 v -0.14934 -0.14935 h -0.14935 c -0.12721,0 -0.14934,0.01 -0.14934,0.0664 0,0.0566 -0.0222,0.0664 -0.14934,0.0664 h -0.14934 v -0.14934 c 0,-0.13718 0.007,-0.14935 0.083,-0.14935 0.0762,0 0.083,-0.0121 0.083,-0.14933 0,-0.13718 -0.007,-0.14935 -0.083,-0.14935 -0.0762,0 -0.083,-0.0122 -0.083,-0.14934 0,-0.13717 0.007,-0.14934 0.083,-0.14934 0.0664,0 0.083,-0.0166 0.083,-0.083 0,-0.0664 -0.0166,-0.083 -0.083,-0.083 -0.0608,0 -0.083,-0.0177 -0.083,-0.0664 0,-0.0442 -0.0221,-0.0664 -0.0664,-0.0664 -0.0636,0 -0.0664,-0.0221 -0.0664,-0.53099 v -0.53099 h -0.14935 -0.14934 v 0.14934 0.14934 h -0.14934 -0.14935 v -0.23231 c 0,-0.22567 -0.002,-0.23231 -0.083,-0.23231 -0.08,0 -0.083,-0.008 -0.083,-0.21572 0,-0.20796 -0.003,-0.21571 -0.083,-0.21571 h -0.083 v -0.46462 -0.46462 h -0.14933 -0.14935 v -0.21572 c 0,-0.20797 0.003,-0.21571 0.083,-0.21571 0.0664,0 0.083,-0.0166 0.083,-0.083 0,-0.0762 0.0122,-0.083 0.14934,-0.083 h 0.14934 v -0.29868 -0.29868 h -0.14934 c -0.13717,0 -0.14934,-0.007 -0.14934,-0.083 0,-0.0762 -0.0122,-0.083 -0.14934,-0.083 -0.12722,0 -0.14934,-0.01 -0.14934,-0.0664 0,-0.0487 -0.0221,-0.0664 -0.083,-0.0664 -0.0664,0 -0.083,-0.0166 -0.083,-0.083 0,-0.0608 -0.0177,-0.083 -0.0664,-0.083 -0.0442,0 -0.0664,-0.0221 -0.0664,-0.0664 0,-0.0487 -0.0221,-0.0664 -0.083,-0.0664 -0.0664,0 -0.083,-0.0166 -0.083,-0.083 0,-0.0824 -0.002,-0.083 -0.29869,-0.083 -0.27656,0 -0.29868,-0.005 -0.29868,-0.0664 0,-0.0639 -0.0222,-0.0664 -0.59737,-0.0664 h -0.59737 v -0.083 c 0,-0.0664 -0.0166,-0.083 -0.083,-0.083 -0.0619,0 -0.083,-0.0175 -0.083,-0.069 0,-0.0669 -0.0131,-0.0686 -0.44807,-0.0581 l -0.44808,0.0108 4e-5,-0.17423 3e-5,-0.17423 h -0.23129 c -0.22567,0 -0.23231,0.002 -0.23231,0.083 0,0.0815 -0.005,0.083 -0.26278,0.083 -0.14453,0 -0.28267,0.008 -0.30698,0.0171 -0.035,0.0135 -0.0419,-0.035 -0.0333,-0.23232 l 0.0109,-0.24936 h -0.23494 c -0.22847,0 -0.23493,0.002 -0.23493,0.083 v 0.083 h -0.59737 -0.59737 v -0.083 -0.083 h -0.46462 c -0.44249,0 -0.46462,-0.003 -0.46462,-0.0664 0,-0.0647 -0.0221,-0.0664 -0.89605,-0.0664 h -0.89605 v -0.083 c 0,-0.0762 -0.0122,-0.083 -0.14935,-0.083 -0.13717,0 -0.14934,0.007 -0.14934,0.083 v 0.083 h -0.68026 -0.68034 v -0.083 c 0,-0.0664 -0.0166,-0.083 -0.083,-0.083 -0.0608,0 -0.083,-0.0177 -0.083,-0.0664 0,-0.0615 -0.0221,-0.0664 -0.29868,-0.0664 -0.27656,0 -0.29869,0.005 -0.29869,0.0664 0,0.0566 -0.0221,0.0664 -0.14934,0.0664 h -0.14934 v -0.14935 -0.14934 h -0.59737 -0.59736 v -0.14934 -0.14935 h -0.16594 c -0.15487,0 -0.16594,0.006 -0.16594,0.083 0,0.0609 -0.0177,0.083 -0.06637,0.083 -0.04867,0 -0.06637,-0.0222 -0.06637,-0.083 0,-0.0762 -0.01217,-0.083 -0.149343,-0.083 -0.137172,0 -0.149341,-0.007 -0.149341,-0.083 0,-0.0664 -0.01659,-0.083 -0.08297,-0.083 -0.06084,0 -0.08297,-0.0177 -0.08297,-0.0664 0,-0.0566 0.02212,-0.0664 0.149341,-0.0664 0.137174,0 0.149343,-0.007 0.149343,-0.083 0,-0.08 -0.0077,-0.083 -0.215717,-0.083 -0.193591,0 -0.215717,-0.007 -0.215717,-0.0664 0,-0.0487 -0.02212,-0.0664 -0.08297,-0.0664 -0.06638,0 -0.08297,-0.0166 -0.08297,-0.083 0,-0.0608 -0.0177,-0.083 -0.06637,-0.083 -0.05654,0 -0.06637,-0.0221 -0.06637,-0.14934 0,-0.13717 -0.0068,-0.14934 -0.08297,-0.14934 -0.06084,0 -0.08297,-0.0177 -0.08297,-0.0664 0,-0.0487 -0.02213,-0.0664 -0.08297,-0.0664 -0.06084,0 -0.08297,0.0177 -0.08297,0.0664 0,0.0442 -0.02212,0.0664 -0.06637,0.0664 -0.04867,0 -0.06637,0.0221 -0.06637,0.083 0,0.0762 -0.01217,0.083 -0.149342,0.083 -0.137175,0 -0.149343,-0.007 -0.149343,-0.083 0,-0.0762 -0.01217,-0.083 -0.149343,-0.083 h -0.14934 v -0.21572 c 0,-0.20797 -0.003,-0.21572 -0.08297,-0.21572 -0.07621,0 -0.08297,0.0122 -0.08297,0.14935 0,0.12721 -0.0098,0.14934 -0.06637,0.14934 -0.06172,0 -0.06638,-0.0221 -0.06638,-0.31528 0,-0.31417 -3.02e-4,-0.31528 -0.08297,-0.31528 -0.07621,0 -0.08297,-0.0122 -0.08297,-0.14934 0,-0.12721 -0.0098,-0.14934 -0.06637,-0.14934 -0.06392,0 -0.06637,-0.0221 -0.06637,-0.59737 v -0.59737 h -0.08297 -0.08297 v -0.44802 c 0,-0.42591 -0.0033,-0.44803 -0.06637,-0.44803 -0.04868,0 -0.06637,-0.0221 -0.06637,-0.083 0,-0.0608 0.0177,-0.083 0.06637,-0.083 0.04425,0 0.06637,-0.0221 0.06637,-0.0664 0,-0.0442 -0.02212,-0.0664 -0.06637,-0.0664 -0.05269,0 -0.06645,-0.0223 -0.06674,-0.10785 -1.51e-4,-0.0593 -0.0096,-0.16386 -0.02094,-0.23231 -0.01942,-0.11749 -0.01569,-0.12445 0.06674,-0.12445 0.06519,0 0.08731,0.0168 0.08731,0.0664 0,0.0601 0.02212,0.0664 0.23231,0.0664 0.210185,0 0.232309,-0.006 0.232309,-0.0664 0,-0.0566 -0.02212,-0.0664 -0.149341,-0.0664 -0.137175,0 -0.149343,-0.007 -0.149343,-0.083 0,-0.0609 0.0177,-0.083 0.06637,-0.083 0.0365,0 0.06637,-0.0207 0.06637,-0.0459 0,-0.0252 0.03734,-0.053 0.08297,-0.0618 0.06446,-0.0123 0.08297,-0.002 0.08297,0.0459 0,0.0397 0.02377,0.0618 0.06637,0.0618 0.04673,0 0.06635,-0.0221 0.0663,-0.0747 -7.2e-5,-0.0727 0.0078,-0.0744 0.298685,-0.064 l 0.298761,0.0107 v -0.0853 c 0,-0.079 0.01107,-0.0853 0.149341,-0.0853 0.127217,0 0.149342,-0.01 0.149342,-0.0664 0,-0.0575 0.02213,-0.0664 0.165936,-0.0664 0.142129,0 0.165935,-0.009 0.165935,-0.0644 0,-0.0918 0.0544,-0.11417 0.25506,-0.10488 0.174531,0.008 0.176373,0.007 0.176373,-0.0885 0,-0.0709 0.02212,-0.10672 0.08297,-0.13445 0.07328,-0.0334 0.08297,-0.0301 0.08297,0.0279 0,0.0587 0.0229,0.0657 0.215715,0.0657 0.206689,0 0.215719,-0.003 0.215719,-0.0812 0,-0.0733 -0.0153,-0.0821 -0.157641,-0.0913 l -0.157638,-0.0101 0.139722,-0.0747 c 0.118267,-0.0632 0.190907,-0.0747 0.472917,-0.0747 0.31107,0 0.3332,-0.005 0.3332,-0.0664 0,-0.0654 0.0221,-0.0664 1.42704,-0.0664 h 1.42705 v -0.083 -0.083 h 1.06199 c 0.92186,0 1.06198,-0.007 1.06198,-0.0498 0,-0.0274 -0.0261,-0.0525 -0.0581,-0.0557 -0.19377,-0.0198 0.71943,-0.0419 1.31089,-0.0319 0.66496,0.0113 0.70523,0.0156 0.70523,0.0747 0,0.0555 0.0267,0.0627 0.23231,0.0627 0.21019,0 0.23231,-0.006 0.23231,-0.0664 0,-0.0565 0.0221,-0.0664 0.14934,-0.0664 0.10856,0 0.14934,-0.0132 0.14934,-0.0483 0,-0.0637 0.1035,-0.0773 0.76331,-0.1002 0.30117,-0.0104 0.63111,-0.0277 0.73321,-0.0385 l 0.18562,-0.0195 -0.0152,0.10326 -0.0152,0.10326 h 0.21948 c 0.21199,0 0.21948,-0.003 0.21948,-0.083 v -0.083 h 0.38166 c 0.20991,0 0.38165,-0.0137 0.38165,-0.0304 0,-0.0167 -0.0187,-0.0367 -0.0415,-0.0443 -0.0228,-0.008 0.17506,-0.0235 0.43973,-0.0352 0.74587,-0.0331 1.6577,-0.0861 1.85018,-0.10764 0.14456,-0.0161 0.17423,-0.0106 0.17423,0.0327 0,0.0335 0.0296,0.0522 0.083,0.0522 0.0516,0 0.083,-0.0188 0.083,-0.0498 0,-0.0274 0.0278,-0.0498 0.0617,-0.0498 0.034,0 0.13104,-0.009 0.21572,-0.0211 0.1417,-0.0194 0.15398,-0.0155 0.15398,0.0498 0,0.0656 0.0172,0.0709 0.23231,0.0709 0.22567,0 0.2323,-0.002 0.2323,-0.083 0,-0.0609 0.0177,-0.083 0.0664,-0.083 0.0487,0 0.0664,0.0221 0.0664,0.083 0,0.0762 0.0122,0.083 0.14934,0.083 0.13718,0 0.14935,-0.007 0.14935,-0.083 v -0.083 h 0.46461 c 0.3737,0 0.46462,-0.009 0.46462,-0.046 0,-0.0646 0.29346,-0.0983 0.7882,-0.0906 0.24353,0.004 0.40654,-0.007 0.40654,-0.0258 0,-0.0176 0.0859,-0.0412 0.19083,-0.0524 0.10495,-0.0112 0.23936,-0.0279 0.29868,-0.037 0.092,-0.0143 0.10786,-0.007 0.10786,0.0511 0,0.0636 0.0198,0.0679 0.31528,0.0679 0.31417,0 0.31527,-3e-4 0.31527,-0.083 v -0.083 h 0.74671 0.74671 v 0.083 c 0,0.0824 0.002,0.083 0.29868,0.083 h 0.29869 v 0.14934 c 0,0.13718 0.007,0.14935 0.083,0.14935 0.0609,0 0.083,0.0177 0.083,0.0664 0,0.0442 0.0221,0.0664 0.0664,0.0664 0.0487,0 0.0664,0.0221 0.0664,0.083 0,0.08 -0.008,0.083 -0.21572,0.083 -0.19358,0 -0.21571,0.007 -0.21571,0.0664 0,0.0442 0.0221,0.0664 0.0664,0.0664 0.0487,0 0.0664,0.0221 0.0664,0.083 0,0.0664 0.0166,0.083 0.083,0.083 0.0609,0 0.083,0.0177 0.083,0.0664 0,0.0442 0.0221,0.0664 0.0664,0.0664 0.0487,0 0.0664,0.0221 0.0664,0.083 0,0.0664 0.0166,0.083 0.083,0.083 0.0824,0 0.083,0.002 0.083,0.29868 0,0.29647 -5.7e-4,0.29869 -0.083,0.29869 -0.0608,0 -0.083,-0.0177 -0.083,-0.0664 0,-0.0566 -0.0221,-0.0664 -0.14934,-0.0664 -0.13717,0 -0.14934,-0.007 -0.14934,-0.083 0,-0.0762 -0.0122,-0.083 -0.14934,-0.083 -0.13718,0 -0.14935,0.007 -0.14935,0.083 0,0.0608 -0.0177,0.083 -0.0664,0.083 -0.0442,0 -0.0664,0.0221 -0.0664,0.0664 0,0.0487 -0.0221,0.0664 -0.083,0.0664 -0.0762,0 -0.083,-0.0122 -0.083,-0.14935 0,-0.12721 -0.01,-0.14934 -0.0664,-0.14934 -0.0442,0 -0.0664,-0.0221 -0.0664,-0.0664 0,-0.0487 -0.0221,-0.0664 -0.083,-0.0664 -0.0608,0 -0.083,0.0177 -0.083,0.0664 0,0.06 -0.0221,0.0664 -0.23231,0.0664 -0.21019,0 -0.23231,-0.006 -0.23231,-0.0664 0,-0.0596 -0.0222,-0.0664 -0.21571,-0.0664 h -0.21572 v 0.21571 c 0,0.20797 -0.003,0.21572 -0.083,0.21572 -0.0608,0 -0.083,-0.0177 -0.083,-0.0664 0,-0.0442 -0.0221,-0.0664 -0.0664,-0.0664 -0.0442,0 -0.0664,0.0221 -0.0664,0.0664 0,0.0625 -0.0221,0.0664 -0.38165,0.0664 h -0.38165 v 0.14934 c 0,0.13717 -0.007,0.14934 -0.083,0.14934 -0.0608,0 -0.083,-0.0177 -0.083,-0.0664 0,-0.0442 -0.0221,-0.0664 -0.0664,-0.0664 -0.0487,0 -0.0664,-0.0221 -0.0664,-0.083 0,-0.0608 0.0177,-0.083 0.0664,-0.083 0.0442,0 0.0664,-0.0222 0.0664,-0.0664 0,-0.0566 -0.0221,-0.0664 -0.14934,-0.0664 -0.12722,0 -0.14935,0.01 -0.14935,0.0664 0,0.0625 -0.0221,0.0664 -0.38165,0.0664 h -0.38165 v 0.14934 0.14934 h 0.16594 c 0.15487,0 0.16593,0.006 0.16593,0.083 v 0.083 h -0.53099 -0.531 v -0.083 c 0,-0.0762 0.0122,-0.083 0.14935,-0.083 0.12721,0 0.14934,-0.01 0.14934,-0.0664 0,-0.0566 -0.0221,-0.0664 -0.14934,-0.0664 -0.13718,0 -0.14935,-0.007 -0.14935,-0.083 0,-0.08 0.008,-0.083 0.21572,-0.083 0.19359,0 0.21572,-0.007 0.21572,-0.0664 0,-0.0566 0.0222,-0.0664 0.14934,-0.0664 0.13717,0 0.14934,-0.007 0.14934,-0.083 v -0.083 h -0.44803 -0.44803 v 0.23231 0.23231 h -0.14938 c -0.13717,0 -0.14934,-0.007 -0.14934,-0.083 0,-0.0664 -0.0166,-0.083 -0.083,-0.083 -0.0664,0 -0.083,0.0166 -0.083,0.083 0,0.0608 -0.0177,0.083 -0.0664,0.083 -0.0487,0 -0.0664,-0.0221 -0.0664,-0.083 0,-0.0806 -0.007,-0.083 -0.23231,-0.083 h -0.23231 v 0.23231 c 0,0.22567 0.002,0.2323 0.083,0.2323 0.0608,0 0.083,0.0177 0.083,0.0664 0,0.0566 -0.0221,0.0664 -0.14934,0.0664 h -0.14934 v -0.29868 c 0,-0.29647 -5.7e-4,-0.29868 -0.083,-0.29868 -0.0806,0 -0.083,0.007 -0.083,0.23231 v 0.2323 h -0.14934 -0.14934 v -0.2323 c 0,-0.21019 -0.006,-0.23231 -0.0664,-0.23231 -0.0601,0 -0.0664,0.0221 -0.0664,0.23231 0,0.22567 -0.002,0.2323 -0.083,0.2323 -0.0664,0 -0.083,-0.0166 -0.083,-0.083 v -0.083 h -0.59733 c -0.57524,0 -0.59737,-0.002 -0.59737,-0.0664 0,-0.0601 -0.0222,-0.0664 -0.23231,-0.0664 -0.21018,0 -0.23231,0.006 -0.23231,0.0664 0,0.0625 -0.0221,0.0664 -0.38165,0.0664 h -0.38165 v 0.083 0.083 h -1.57639 c -1.55426,0 -1.57639,0.001 -1.57639,0.0664 0,0.0651 -0.0221,0.0664 -1.14495,0.0664 h -1.14496 v 0.083 0.083 h -0.59737 -0.59737 v -0.083 c 0,-0.0824 -0.002,-0.083 -0.29868,-0.083 -0.29647,0 -0.29868,5.8e-4 -0.29868,0.083 v 0.083 h -1.51002 -1.51001 v 0.083 c 0,0.0664 -0.0166,0.083 -0.083,0.083 -0.0608,0 -0.083,0.0177 -0.083,0.0664 0,0.0442 -0.0221,0.0664 -0.0664,0.0664 -0.0487,0 -0.0664,0.0221 -0.0664,0.083 0,0.0762 -0.0122,0.083 -0.14934,0.083 -0.12722,0 -0.14935,0.01 -0.14935,0.0664 0,0.0625 -0.0221,0.0664 -0.38165,0.0664 h -0.381653 v 0.083 c 0,0.0762 -0.01217,0.083 -0.149342,0.083 -0.127217,0 -0.149343,0.01 -0.149343,0.0664 0,0.0631 0.02213,0.0664 0.448026,0.0664 h 0.448032 v 0.083 c 0,0.0664 0.0166,0.083 0.083,0.083 0.0608,0 0.083,0.0177 0.083,0.0664 0,0.0617 -0.0221,0.0664 -0.31528,0.0664 -0.314175,0 -0.31528,3e-4 -0.31528,0.083 v 0.083 h 0.531 c 0.50887,0 0.53099,0.003 0.53099,0.0664 0,0.0625 0.0221,0.0664 0.38165,0.0664 0.35953,0 0.38166,-0.004 0.38166,-0.0664 0,-0.0644 0.0221,-0.0664 0.74671,-0.0664 h 0.74671 v -0.083 -0.083 h 1.67595 c 1.65382,0 1.67594,-10e-4 1.67594,-0.0664 0,-0.0652 0.0221,-0.0664 1.19474,-0.0664 h 1.19474 v -0.083 -0.083 h 1.21133 c 1.1892,0 1.21133,-10e-4 1.21133,-0.0664 0,-0.0651 0.0221,-0.0664 1.12836,-0.0664 h 1.12836 v -0.083 c 0,-0.0664 0.0166,-0.083 0.083,-0.083 0.0608,0 0.083,-0.0177 0.083,-0.0664 0,-0.0487 0.0221,-0.0664 0.083,-0.0664 0.0608,0 0.083,0.0177 0.083,0.0664 0,0.0442 0.0222,0.0664 0.0664,0.0664 0.0487,0 0.0664,0.0221 0.0664,0.083 0,0.0823 0.002,0.083 0.29868,0.083 h 0.29869 v 0.29869 0.29868 h -0.21572 c -0.20797,0 -0.21572,-0.003 -0.21572,-0.083 v -0.083 h -0.68033 c -0.65821,0 -0.68034,-0.002 -0.68034,-0.0664 0,-0.0566 -0.0221,-0.0664 -0.14934,-0.0664 -0.12722,0 -0.14934,0.01 -0.14934,0.0664 0,0.064 -0.0221,0.0664 -0.61396,0.0664 h -0.61396 v 0.2323 0.23231 h 0.91264 0.91265 v 0.14935 c 0,0.12721 0.01,0.14934 0.0664,0.14934 0.0487,0 0.0664,0.0221 0.0664,0.083 0,0.0664 0.0166,0.083 0.083,0.083 0.0608,0 0.083,0.0177 0.083,0.0664 0,0.0615 0.0221,0.0664 0.29868,0.0664 h 0.29869 v -0.14934 -0.14934 h 0.23231 c 0.22567,0 0.23231,0.002 0.23231,0.083 0,0.0664 -0.0166,0.083 -0.083,0.083 -0.0608,0 -0.083,0.0177 -0.083,0.0664 0,0.0487 0.0221,0.0664 0.083,0.0664 h 0.083 v 0.531 c 0,0.50887 0.003,0.53099 0.0664,0.53099 0.0487,0 0.0664,0.0221 0.0664,0.083 0,0.0762 0.0122,0.083 0.14934,0.083 h 0.14934 v -0.14934 c 0,-0.13718 0.007,-0.14935 0.083,-0.14935 0.08,0 0.083,0.008 0.083,0.21572 v 0.21572 h -0.91265 -0.91264 v 0.083 c 0,0.0827 0.001,0.083 0.31527,0.083 0.29316,0 0.31528,0.005 0.31528,0.0664 0,0.0632 -0.0221,0.0664 -0.46462,0.0664 h -0.46462 v 0.083 c 0,0.0608 -0.0177,0.083 -0.0664,0.083 -0.0566,0 -0.0664,0.0221 -0.0664,0.14935 0,0.13717 -0.007,0.14934 -0.083,0.14934 h -0.083 v 0.38165 0.38165 h 0.083 c 0.0608,0 0.083,0.0177 0.083,0.0664 0,0.0651 0.0221,0.0664 1.19474,0.0664 1.17261,0 1.19473,-0.001 1.19473,-0.0664 0,-0.0617 0.0221,-0.0664 0.31528,-0.0664 0.29315,0 0.31528,0.005 0.31528,0.0664 0,0.0596 0.0222,0.0664 0.21572,0.0664 h 0.21571 v -0.14934 -0.14934 h 0.53099 0.531 v 0.083 c 0,0.0664 0.0166,0.083 0.083,0.083 0.0664,0 0.083,-0.0166 0.083,-0.083 0,-0.08 0.008,-0.083 0.21571,-0.083 h 0.21572 v 0.14934 c 0,0.13717 0.007,0.14934 0.083,0.14934 0.0762,0 0.083,-0.0122 0.083,-0.14934 v -0.14934 h 0.14934 c 0.12721,0 0.14934,-0.01 0.14934,-0.0664 0,-0.0487 0.0221,-0.0664 0.083,-0.0664 0.0762,0 0.083,0.0122 0.083,0.14934 0,0.13717 -0.007,0.14934 -0.083,0.14934 -0.0608,0 -0.083,0.0177 -0.083,0.0664 0,0.0566 0.0221,0.0664 0.14934,0.0664 h 0.14935 v 0.38166 0.38165 h -0.14935 -0.14934 v 0.14933 c 0,0.12723 -0.01,0.14935 -0.0664,0.14935 -0.0487,0 -0.0664,0.0221 -0.0664,0.083 0,0.0608 0.0177,0.083 0.0664,0.083 0.0442,0 0.0664,0.0222 0.0664,0.0664 0,0.0487 0.0221,0.0664 0.083,0.0664 0.0823,0 0.083,0.002 0.083,0.29869 0,0.27656 0.005,0.29868 0.0664,0.29868 0.0442,0 0.0664,-0.0221 0.0664,-0.0664 0,-0.0487 0.0222,-0.0664 0.083,-0.0664 0.0608,0 0.083,0.0177 0.083,0.0664 0,0.0442 0.0221,0.0664 0.0664,0.0664 0.0601,0 0.0664,0.0222 0.0664,0.23231 v 0.23231 h -0.14934 c -0.13717,0 -0.14934,0.007 -0.14934,0.083 0,0.0762 0.0122,0.083 0.14934,0.083 0.12722,0 0.14934,0.01 0.14934,0.0664 0,0.0487 0.0221,0.0664 0.083,0.0664 0.0806,0 0.083,0.007 0.083,0.23231 0,0.21019 0.006,0.23231 0.0664,0.23231 0.0596,0 0.0664,0.0221 0.0664,0.21572 0,0.20797 0.003,0.21571 0.083,0.21571 0.0806,0 0.083,0.007 0.083,0.23232 0,0.21018 0.006,0.23231 0.0664,0.23231 0.0601,0 0.0664,0.0221 0.0664,0.23231 0,0.22567 0.002,0.23231 0.083,0.23231 0.0608,0 0.083,0.0177 0.083,0.0664 0,0.0373 0.0221,0.0664 0.0506,0.0664 0.082,0 0.12233,0.16291 0.11698,0.47292 -0.005,0.27228 -5.7e-4,0.29039 0.0631,0.29039 0.0636,0 0.068,0.0197 0.068,0.29868 0,0.29647 5.7e-4,0.29869 0.083,0.29869 0.0806,0 0.083,0.007 0.083,0.2323 0,0.21019 0.006,0.23231 0.0664,0.23231 0.0601,0 0.0664,0.0221 0.0664,0.23232 0,0.22567 0.002,0.23231 0.083,0.23231 0.0824,0 0.083,0.002 0.083,0.29868 0,0.27656 0.005,0.29869 0.0664,0.29869 0.0442,0 0.0664,0.0221 0.0664,0.0664 0,0.0487 0.0221,0.0664 0.083,0.0664 h 0.083 v 0.38165 c 0,0.35953 0.004,0.38166 0.0664,0.38166 0.0487,0 0.0664,0.0221 0.0664,0.083 0,0.0774 0.0111,0.083 0.16594,0.083 0.14381,0 0.16593,0.009 0.16593,0.0664 0,0.0487 -0.0221,0.0664 -0.083,0.0664 -0.0664,0 -0.083,0.0166 -0.083,0.083 0,0.0664 -0.0166,0.083 -0.083,0.083 -0.0762,0 -0.083,0.0122 -0.083,0.14935 0,0.13717 0.007,0.14934 0.083,0.14934 0.0608,0 0.083,0.0177 0.083,0.0664 0,0.0487 0.0222,0.0664 0.083,0.0664 h 0.083 v 0.37889 c 0,0.20838 0.014,0.38386 0.0311,0.38995 0.0171,0.006 -0.0165,0.17887 -0.0747,0.38399 -0.10172,0.35881 -0.10919,0.37296 -0.197,0.37336 -0.086,4.5e-4 -0.0913,0.009 -0.0913,0.14976 v 0.14934 H 120.751 c -0.13718,0 -0.14934,0.007 -0.14934,0.083 0,0.0608 -0.0177,0.083 -0.0664,0.083 -0.0442,0 -0.0664,0.0221 -0.0664,0.0664 0,0.0487 -0.0221,0.0664 -0.083,0.0664 -0.0664,0 -0.083,0.0166 -0.083,0.083 0,0.0609 -0.0177,0.083 -0.0664,0.083 -0.0566,0 -0.0664,0.0221 -0.0664,0.14934 v 0.14935 h -0.23232 c -0.21018,0 -0.23231,0.006 -0.23231,0.0664 0,0.0487 -0.0221,0.0664 -0.083,0.0664 -0.0664,0 -0.083,0.0166 -0.083,0.083 0,0.0823 -0.002,0.083 -0.29868,0.083 -0.27656,0 -0.29868,0.005 -0.29868,0.0664 0,0.0596 -0.0221,0.0664 -0.21572,0.0664 -0.18953,0 -0.21572,0.008 -0.21572,0.0628 0,0.086 -0.0617,0.10311 -0.37164,0.10311 -0.25032,0 -0.26559,0.004 -0.2493,0.0664 0.0142,0.0543 0.001,0.0664 -0.0725,0.0664 -0.0494,0 -0.104,0.0112 -0.12134,0.0249 -0.0174,0.0137 -0.1174,0.0204 -0.22235,0.0149 z m -1.55149,-1.53325 c 0,-0.15487 0.006,-0.16593 0.083,-0.16593 0.08,0 0.083,-0.008 0.083,-0.21572 0,-0.20797 -0.003,-0.21571 -0.083,-0.21571 -0.0762,0 -0.083,0.0121 -0.083,0.14934 v 0.14934 h -0.14934 c -0.12722,0 -0.14935,0.01 -0.14935,0.0664 0,0.0487 0.0221,0.0664 0.083,0.0664 0.0774,0 0.083,0.0111 0.083,0.16593 0,0.14382 0.009,0.16594 0.0664,0.16594 0.0575,0 0.0664,-0.0222 0.0664,-0.16594 z m 4.38069,0 V 246.631 h 0.14935 c 0.12721,0 0.14934,-0.01 0.14934,-0.0664 0,-0.0565 -0.0221,-0.0664 -0.14934,-0.0664 -0.12722,0 -0.14935,0.01 -0.14935,0.0664 0,0.0442 -0.0221,0.0664 -0.0664,0.0664 -0.0487,0 -0.0664,0.0222 -0.0664,0.083 0,0.0664 -0.0166,0.083 -0.083,0.083 -0.0664,0 -0.083,0.0166 -0.083,0.083 0,0.0762 0.0122,0.083 0.14934,0.083 h 0.14934 z m -4.81213,-0.44802 c 0,-0.13717 -0.007,-0.14934 -0.083,-0.14934 -0.0762,0 -0.083,0.0121 -0.083,0.14934 0,0.13717 0.007,0.14934 0.083,0.14934 0.0762,0 0.083,-0.0122 0.083,-0.14934 z m 5.57544,-0.23231 c 0,-0.0664 -0.0166,-0.083 -0.083,-0.083 -0.0664,0 -0.083,0.0166 -0.083,0.083 0,0.0664 0.0166,0.083 0.083,0.083 0.0664,0 0.083,-0.0166 0.083,-0.083 z m -4.97807,-0.44803 c 0,-0.0487 -0.0221,-0.0664 -0.083,-0.0664 -0.0608,0 -0.083,0.0177 -0.083,0.0664 0,0.0487 0.0222,0.0664 0.083,0.0664 0.0608,0 0.083,-0.0177 0.083,-0.0664 z m 0,-0.46462 c 0,-0.0487 -0.0221,-0.0664 -0.083,-0.0664 -0.0608,0 -0.083,0.0177 -0.083,0.0664 0,0.0487 0.0222,0.0664 0.083,0.0664 0.0608,0 0.083,-0.0177 0.083,-0.0664 z m 3.61739,-0.53099 v -0.59737 h -0.2323 -0.23231 v 0.59737 0.59737 h 0.23231 0.2323 z m 1.36068,0.38165 c 0,-0.0664 -0.0166,-0.083 -0.083,-0.083 -0.0664,0 -0.083,0.0166 -0.083,0.083 0,0.0664 0.0166,0.083 0.083,0.083 0.0664,0 0.083,-0.0166 0.083,-0.083 z m -5.144,-0.89605 c 0,-0.0608 -0.0177,-0.083 -0.0664,-0.083 -0.0442,0 -0.0664,-0.0221 -0.0664,-0.0664 0,-0.0487 -0.0221,-0.0664 -0.083,-0.0664 -0.0608,0 -0.083,0.0177 -0.083,0.0664 0,0.0487 0.0221,0.0664 0.083,0.0664 0.0664,0 0.083,0.0166 0.083,0.083 0,0.0608 0.0177,0.083 0.0664,0.083 0.0487,0 0.0664,-0.0222 0.0664,-0.083 z m -0.29869,-0.61396 c 0,-0.0442 -0.0221,-0.0664 -0.0664,-0.0664 -0.0442,0 -0.0664,0.0221 -0.0664,0.0664 0,0.0442 0.0221,0.0664 0.0664,0.0664 0.0442,0 0.0664,-0.0221 0.0664,-0.0664 z m 4.67938,-0.74671 c 0,-0.0608 -0.0177,-0.083 -0.0664,-0.083 -0.0487,0 -0.0664,0.0221 -0.0664,0.083 0,0.0608 0.0177,0.083 0.0664,0.083 0.0487,0 0.0664,-0.0222 0.0664,-0.083 z m -0.13274,-0.531 c 0,-0.13717 -0.007,-0.14934 -0.083,-0.14934 -0.0664,0 -0.083,-0.0166 -0.083,-0.083 0,-0.0608 -0.0177,-0.083 -0.0664,-0.083 -0.0487,0 -0.0664,0.0221 -0.0664,0.083 0,0.0608 0.0177,0.083 0.0664,0.083 0.0566,0 0.0664,0.0221 0.0664,0.14934 0,0.13718 0.007,0.14934 0.083,0.14934 0.0762,0 0.083,-0.0122 0.083,-0.14934 z m -1.65936,-2.27332 v -1.06198 h -0.083 c -0.0608,0 -0.083,-0.0177 -0.083,-0.0664 0,-0.0442 -0.0221,-0.0664 -0.0664,-0.0664 -0.0487,0 -0.0664,-0.0222 -0.0664,-0.083 0,-0.0664 -0.0166,-0.083 -0.083,-0.083 -0.08,0 -0.083,-0.008 -0.083,-0.21572 0,-0.20797 -0.003,-0.21572 -0.083,-0.21572 -0.0664,0 -0.083,-0.0166 -0.083,-0.083 v -0.083 h -0.5144 -0.5144 v 0.14934 c 0,0.12722 0.01,0.14934 0.0664,0.14934 0.0487,0 0.0664,0.0222 0.0664,0.083 0,0.0664 0.0166,0.083 0.083,0.083 0.0609,0 0.083,0.0177 0.083,0.0664 0,0.0442 0.0221,0.0664 0.0664,0.0664 0.0625,0 0.0664,0.0221 0.0664,0.38165 v 0.38165 h 0.083 c 0.0762,0 0.083,0.0121 0.083,0.14934 0,0.12722 0.01,0.14934 0.0664,0.14934 0.0601,0 0.0664,0.0222 0.0664,0.23231 0,0.22567 0.002,0.23231 0.083,0.23231 0.0762,0 0.083,0.0122 0.083,0.14935 v 0.14934 h 0.23231 0.23231 v 0.14934 c 0,0.12722 0.01,0.14934 0.0664,0.14934 0.0566,0 0.0664,0.0221 0.0664,0.14934 0,0.13718 0.007,0.14934 0.083,0.14934 h 0.083 z m 0.43144,0.38166 c 0,-0.0609 -0.0177,-0.083 -0.0664,-0.083 -0.0442,0 -0.0664,-0.0221 -0.0664,-0.0664 0,-0.0487 -0.0221,-0.0664 -0.083,-0.0664 -0.0762,0 -0.083,0.0122 -0.083,0.14935 v 0.14934 h 0.14934 c 0.13717,0 0.14934,-0.007 0.14934,-0.083 z m -0.13275,-1.2943 c 0,-0.13717 -0.007,-0.14934 -0.083,-0.14934 -0.0762,0 -0.083,0.0122 -0.083,0.14934 0,0.13717 0.007,0.14934 0.083,0.14934 0.0762,0 0.083,-0.0122 0.083,-0.14934 z m -5.14401,-0.29868 c 0,-0.13717 -0.007,-0.14934 -0.083,-0.14934 -0.0762,0 -0.083,0.0121 -0.083,0.14934 0,0.13717 0.007,0.14934 0.083,0.14934 0.0762,0 0.083,-0.0122 0.083,-0.14934 z m -0.16593,-2.02442 c 0,-0.0664 0.0166,-0.083 0.083,-0.083 0.0608,0 0.083,-0.0177 0.083,-0.0664 0,-0.0487 -0.0221,-0.0664 -0.083,-0.0664 -0.0664,0 -0.083,-0.0166 -0.083,-0.083 0,-0.08 -0.008,-0.083 -0.21572,-0.083 h -0.21571 v 0.14934 c 0,0.12722 0.01,0.14934 0.0664,0.14934 0.0487,0 0.0664,0.0221 0.0664,0.083 0,0.0762 0.0122,0.083 0.14934,0.083 0.13718,0 0.14934,-0.007 0.14934,-0.083 z m -0.89606,-0.29868 c 0,-0.0806 -0.007,-0.083 -0.2323,-0.083 -0.22567,0 -0.23231,-0.002 -0.23231,-0.083 0,-0.0608 -0.0177,-0.083 -0.0664,-0.083 -0.0487,0 -0.0664,0.0221 -0.0664,0.083 0,0.0664 -0.0166,0.083 -0.083,0.083 -0.0664,0 -0.083,-0.0166 -0.083,-0.083 0,-0.08 -0.008,-0.083 -0.21572,-0.083 -0.20797,0 -0.21572,0.003 -0.21572,0.083 0,0.0762 0.0122,0.083 0.14935,0.083 0.13717,0 0.14934,0.007 0.14934,0.083 v 0.083 h 0.44802 0.44803 z m -3.48465,-0.46462 v -0.21572 h -0.21571 c -0.19359,0 -0.21571,0.007 -0.21571,0.0664 0,0.0442 0.0221,0.0664 0.0664,0.0664 0.0565,0 0.0664,0.0221 0.0664,0.14934 v 0.14935 h 0.14934 0.14934 z m 6.9693,0.0664 v -0.14934 h -0.61396 -0.61396 v 0.14934 0.14935 h 0.61396 0.61396 z m 1.19474,-0.5144 c 0,-0.0625 -0.0221,-0.0664 -0.38165,-0.0664 -0.35953,0 -0.38166,0.004 -0.38166,0.0664 0,0.0625 0.0221,0.0664 0.38166,0.0664 0.35952,0 0.38165,-0.004 0.38165,-0.0664 z m 0.29868,0 c 0,-0.0442 -0.0221,-0.0664 -0.0664,-0.0664 -0.0442,0 -0.0664,0.0221 -0.0664,0.0664 0,0.0442 0.0221,0.0664 0.0664,0.0664 0.0442,0 0.0664,-0.0221 0.0664,-0.0664 z m -6.04005,-0.61396 c 0,-0.0664 0.0166,-0.083 0.083,-0.083 0.0664,0 0.083,0.0166 0.083,0.083 0,0.08 0.008,0.083 0.21572,0.083 h 0.21572 v -0.29868 -0.29869 h -0.14936 c -0.12721,0 -0.14934,0.01 -0.14934,0.0664 0,0.0442 -0.0221,0.0664 -0.0664,0.0664 -0.0487,0 -0.0664,0.0221 -0.0664,0.083 0,0.0664 -0.0166,0.083 -0.083,0.083 -0.0664,0 -0.083,-0.0166 -0.083,-0.083 0,-0.0762 -0.0122,-0.083 -0.14934,-0.083 h -0.14934 v 0.23231 0.23231 h 0.14934 c 0.13717,0 0.14934,-0.007 0.14934,-0.083 z m 1.06198,-0.36506 c 0,-0.12722 -0.01,-0.14934 -0.0664,-0.14934 -0.0565,0 -0.0664,0.0221 -0.0664,0.14934 0,0.12722 0.01,0.14935 0.0664,0.14935 0.0566,0 0.0664,-0.0221 0.0664,-0.14935 z m -0.89605,-1.21133 v -0.16593 h -0.14934 -0.14934 v 0.16593 0.16594 h 0.14934 0.14934 z m 2.42266,0.083 c 0,-0.0664 -0.0166,-0.083 -0.083,-0.083 -0.0664,0 -0.083,-0.0166 -0.083,-0.083 0,-0.0608 -0.0177,-0.083 -0.0664,-0.083 -0.0487,0 -0.0664,0.0221 -0.0664,0.083 0,0.0664 -0.0166,0.083 -0.083,0.083 -0.0664,0 -0.083,0.0166 -0.083,0.083 0,0.0806 0.007,0.083 0.23231,0.083 0.22567,0 0.23231,-0.002 0.23231,-0.083 z m -5.30994,-1.2943 v -0.14934 h -0.59737 -0.59736 v 0.14934 0.14934 h 0.59736 0.59737 z m -11.150869,-0.23231 c 0,-0.0664 -0.01659,-0.083 -0.08297,-0.083 -0.06637,0 -0.08297,0.0166 -0.08297,0.083 0,0.0664 0.01659,0.083 0.08297,0.083 0.06637,0 0.08297,-0.0166 0.08297,-0.083 z m -0.165935,-1.19473 c 0,-0.0608 -0.0177,-0.083 -0.06637,-0.083 -0.04867,0 -0.06637,0.0222 -0.06637,0.083 0,0.0608 0.0177,0.083 0.06637,0.083 0.04867,0 0.06637,-0.0221 0.06637,-0.083 z m 0,-0.29869 c 0,-0.0608 -0.0177,-0.083 -0.06637,-0.083 -0.04867,0 -0.06637,0.0221 -0.06637,0.083 0,0.0608 0.0177,0.083 0.06637,0.083 0.04867,0 0.06637,-0.0221 0.06637,-0.083 z m 1.659356,-0.46462 c 0,-0.0608 -0.0177,-0.083 -0.06637,-0.083 -0.04867,0 -0.06637,0.0221 -0.06637,0.083 0,0.0609 0.0177,0.083 0.06637,0.083 0.04867,0 0.06637,-0.0221 0.06637,-0.083 z m 0,-0.44802 c 0,-0.0442 -0.02212,-0.0664 -0.06637,-0.0664 -0.04425,0 -0.06637,0.0221 -0.06637,0.0664 0,0.0442 0.02212,0.0664 0.06637,0.0664 0.04425,0 0.06637,-0.0221 0.06637,-0.0664 z m 1.227928,0 c 0,-0.0617 -0.0221,-0.0664 -0.31528,-0.0664 -0.293154,0 -0.315279,0.005 -0.315279,0.0664 0,0.0617 0.02212,0.0664 0.315279,0.0664 0.29315,0 0.31528,-0.005 0.31528,-0.0664 z m 4.81213,0 c 0,-0.0442 -0.0221,-0.0664 -0.0664,-0.0664 -0.0443,0 -0.0664,0.0221 -0.0664,0.0664 0,0.0442 0.0221,0.0664 0.0664,0.0664 0.0442,0 0.0664,-0.0221 0.0664,-0.0664 z m -1.19474,-0.14934 v -0.083 h -0.38165 -0.38165 v 0.083 0.083 h 0.38165 0.38165 z m 14.50277,-0.0664 v -0.14934 h -0.31528 c -0.29315,0 -0.31527,0.005 -0.31527,0.0664 0,0.0442 -0.0221,0.0664 -0.0664,0.0664 -0.0442,0 -0.0664,-0.0221 -0.0664,-0.0664 0,-0.0487 -0.0221,-0.0664 -0.083,-0.0664 -0.0608,0 -0.083,0.0177 -0.083,0.0664 0,0.0487 0.0221,0.0664 0.083,0.0664 0.0664,0 0.083,0.0166 0.083,0.083 v 0.083 h 0.38165 0.38165 z m -16.46081,-0.39824 v -0.083 h -0.53099 -0.531 v 0.083 0.083 h 0.531 0.53099 z m 14.33684,-0.74672 c 0,-0.0566 -0.0222,-0.0664 -0.14935,-0.0664 -0.12721,0 -0.14934,0.01 -0.14934,0.0664 0,0.0566 0.0221,0.0664 0.14934,0.0664 0.12722,0 0.14935,-0.01 0.14935,-0.0664 z m 0.89605,0 c 0,-0.0487 0.0222,-0.0664 0.083,-0.0664 0.0664,0 0.083,-0.0166 0.083,-0.083 0,-0.0762 0.0122,-0.083 0.14934,-0.083 0.12722,0 0.14934,-0.01 0.14934,-0.0664 0,-0.0601 -0.0222,-0.0664 -0.23231,-0.0664 h -0.23231 v 0.14934 0.14934 h -0.14934 c -0.12722,0 -0.14934,0.01 -0.14934,0.0664 0,0.0566 0.0221,0.0664 0.14934,0.0664 0.12722,0 0.14934,-0.01 0.14934,-0.0664 z m 3.02002,0 c 0,-0.0566 -0.0221,-0.0664 -0.14934,-0.0664 -0.12722,0 -0.14934,0.01 -0.14934,0.0664 0,0.0566 0.0221,0.0664 0.14934,0.0664 0.12722,0 0.14934,-0.01 0.14934,-0.0664 z"
         style="opacity:1;fill:none;fill-opacity:1;stroke:#800080;stroke-width:0.05092525;stroke-miterlimit:4;stroke-dasharray:0.05092524, 0.05092524;stroke-dashoffset:0;stroke-opacity:0" />
      <path
         inkscape:connector-curvature="0"
         id="path911"
         d="m 117.90283,248.93133 c -1.36492,-1.26201 -1.23348,-1.07289 -1.12549,-1.61943 0.16278,-0.82379 0.1298,-1.17805 -0.19189,-2.06155 -0.29173,-0.80121 -0.52825,-1.31404 -0.81699,-1.77143 -0.087,-0.13784 -0.23569,-0.49668 -0.33038,-0.79742 -0.16124,-0.51205 -1.01069,-2.7097 -1.1606,-3.00264 -0.0374,-0.073 -0.65516,-0.48984 -1.37288,-0.92627 l -1.30493,-0.79352 -0.73131,-0.11784 c -3.1667,-0.51024 -4.53484,-0.6514 -6.31321,-0.6514 -1.04911,0 -1.37877,-0.0238 -1.83123,-0.13229 -0.30348,-0.0728 -0.65096,-0.13249 -0.77215,-0.13275 -0.16289,-3e-4 -0.38052,-0.11212 -0.83428,-0.42848 -0.6782,-0.47285 -1.531069,-0.91031 -2.018061,-1.03512 l -0.31647,-0.0811 -0.02763,-1.40163 c -0.01518,-0.7709 -0.02922,-1.69707 -0.03117,-2.05816 l -0.0034,-0.65653 0.564182,-0.11449 c 0.642153,-0.13032 1.243159,-0.35427 2.057599,-0.76673 l 0.56418,-0.28572 1.85848,-0.10462 c 1.02217,-0.0576 3.47138,-0.17917 5.44269,-0.27028 6.17488,-0.2854 9.176,-0.49583 12.33835,-0.86515 0.47058,-0.055 0.86196,-0.0917 0.86974,-0.0816 0.008,0.0101 0.0486,0.19754 0.0906,0.41657 0.1481,0.77086 0.19523,0.87847 0.41893,0.95644 0.11415,0.0398 0.40747,0.0724 0.65181,0.0724 h 0.44426 l 0.043,1.14495 c 0.0236,0.62973 0.0625,1.34657 0.0864,1.59298 0.0416,0.42921 0.0374,0.44803 -0.10105,0.44803 -0.0795,0 -0.24806,0.0433 -0.37466,0.0962 l -0.23018,0.0962 0.002,0.84966 c 0.002,0.63743 0.0316,0.93492 0.12013,1.191 l 0.11798,0.34134 -0.83367,0.20688 c -1.39979,0.34737 -2.39345,0.92235 -2.39345,1.38499 0,0.60463 0.42308,2.52827 0.84276,3.83188 0.19072,0.59239 1.34109,3.79014 1.70726,4.74576 0.0823,0.21473 0.0691,0.30011 -0.17431,1.12836 -0.26141,0.88953 -0.26653,0.89953 -0.70555,1.37461 l -0.44223,0.47856 -1.32749,0.30632 c -0.73012,0.16848 -1.37229,0.31666 -1.42704,0.32931 -0.0559,0.0129 -0.50712,-0.35383 -1.02881,-0.83618 z"
         style="opacity:1;fill:#32353e;fill-opacity:1;stroke:#800080;stroke-width:0.10185049;stroke-miterlimit:4;stroke-dasharray:0.10185048, 0.10185048;stroke-dashoffset:0;stroke-opacity:0" />
      <rect
         transform="matrix(0.99999988,4.8062885e-4,-1.6159886e-4,0.99999999,0,0)"
         rx="0.072041027"
         y="235.15431"
         x="127.30161"
         height="13.594728"
         width="1.7918251"
         id="rect2124-8"
         style="display:inline;opacity:1;fill:#ececec;fill-opacity:1;stroke:#000000;stroke-width:0.15668404;stroke-miterlimit:4;stroke-dasharray:none;stroke-dashoffset:0;stroke-opacity:1" />
      <rect
         transform="matrix(0.99999988,4.8062886e-4,-1.6159886e-4,0.99999999,0,0)"
         rx="0.072041027"
         y="235.1532"
         x="129.59819"
         height="13.594728"
         width="1.7918251"
         id="rect2124-8-3"
         style="display:inline;opacity:1;fill:#ececec;fill-opacity:1;stroke:#000000;stroke-width:0.15668404;stroke-miterlimit:4;stroke-dasharray:none;stroke-dashoffset:0;stroke-opacity:1" />
    </g>
    <text
       xml:space="preserve"
       style="font-style:normal;font-weight:normal;font-size:18.28181076px;line-height:1.25;font-family:sans-serif;letter-spacing:0px;word-spacing:0px;display:inline;opacity:1;fill:#000000;fill-opacity:1;stroke:none;stroke-width:1.14261317"
       x="85.562347"
       y="27.425161"
       id="text8685-1"><tspan
         sodipodi:role="line"
         id="tspan8683-1"
         x="85.562347"
         y="27.425161"
         style="stroke-width:1.14261317">Tools</tspan></text>
    <g
       transform="translate(38.08814,4.8929838)"
       style="display:inline;opacity:1"
       id="g1024">
      <ellipse
         ry="5.8141117"
         rx="6.2792411"
         cy="16.94035"
         cx="40.065826"
         id="path1011"
         style="display:inline;opacity:1;fill:#c8b7b7;stroke:#c8b7b7;stroke-width:0.26458332" />
      <text
         id="text4780"
         y="20.521723"
         x="36.819733"
         style="font-style:normal;font-weight:normal;font-size:9.89119434px;line-height:1.25;font-family:sans-serif;letter-spacing:0px;word-spacing:0px;display:inline;opacity:1;fill:#000000;fill-opacity:1;stroke:none;stroke-width:0.24727985"
         xml:space="preserve"><tspan
           style="stroke-width:0.24727985"
           y="20.521723"
           x="36.819733"
           id="tspan4778"
           sodipodi:role="line">2</tspan></text>
    </g>
  </g>
</svg>
